<svg width="49" height="56" viewBox="0 0 49 56" fill="none" xmlns="http://www.w3.org/2000/svg">
<path d="M24.2125 48.2367C37.5847 48.2367 48.4251 37.4386 48.4251 24.1184C48.4251 10.7982 37.5847 0 24.2125 0C10.8403 0 0 10.7982 0 24.1184C0 37.4386 10.8403 48.2367 24.2125 48.2367Z" fill="#231F20"/>
<path d="M22.1245 38.2839C22.544 38.1999 23.0102 38.4362 23.5413 38.5192C23.8358 38.5705 24.137 38.5705 24.4315 38.5192C24.9755 38.4207 25.2219 38.1799 25.4856 38.3204C25.557 38.3615 25.6174 38.419 25.6617 38.4883C25.706 38.5575 25.7329 38.6363 25.7402 38.7181C25.7466 38.8039 25.7311 38.9361 25.5223 39.1888C25.3262 39.4261 25.0853 39.6229 24.8134 39.7681C24.5588 39.8977 23.871 40.248 23.0514 40.0217C22.6451 39.8893 22.2814 39.652 21.9972 39.3339C21.8688 39.2071 21.7857 39.0416 21.761 38.8632C21.761 38.8221 21.7344 38.5329 21.9249 38.3742C21.9827 38.3277 22.0514 38.2967 22.1245 38.2839Z" fill="white"/>
<path d="M16.2952 24.9788C16.0068 24.6376 17.1534 22.9472 18.7268 21.7174C19.4035 21.1883 20.9797 19.9841 23.3691 19.7214C26.2457 19.4003 29.0408 20.5707 30.6956 22.3989C31.715 23.5228 32.3817 24.9806 32.1124 25.2223C31.9045 25.4048 31.344 24.675 30.1086 24.4433C29.996 24.4214 27.8905 24.0483 26.688 25.2223C26.2521 25.6474 26.1733 26.0434 25.7594 26.0981C25.2025 26.1711 24.991 25.4978 24.294 25.4166C23.5229 25.3254 23.294 26.0926 22.5833 26.0981C21.585 26.1054 21.6272 24.9122 20.4329 24.4186C18.778 23.728 16.6368 25.3829 16.2952 24.9788Z" fill="white"/>
<path d="M29.0618 26.0506C29.1058 26.0123 29.3109 25.8426 29.8678 25.9046C30.7158 25.9958 31.8551 26.5687 32.2626 27.7054C32.3295 27.8879 32.6894 28.8914 32.1894 29.3603C31.7315 29.7899 30.8559 29.4579 30.6013 29.3603C29.2276 28.8375 28.9052 27.3633 28.8906 27.2913C28.8356 27.0212 28.7019 26.3653 29.0618 26.0506Z" fill="white"/>
<path d="M18.9942 27.1935C19.1187 27.0786 19.3367 27.0403 19.8001 27.1689C20.2635 27.2975 21.2929 27.5849 21.8525 28.6048C22.0091 28.8894 22.2628 29.3529 22.0723 29.6512C21.8351 30.0234 21.0539 29.9066 20.6793 29.7971C19.9686 29.5891 19.5922 29.0746 19.214 28.5555C18.963 28.2125 18.8229 27.917 18.8477 27.5822C18.8453 27.4388 18.8977 27.2999 18.9942 27.1935Z" fill="white"/>
<path d="M24.0771 27.8751C24.023 27.8925 23.8096 27.96 23.7345 28.1424C23.6961 28.2628 23.705 28.3932 23.7593 28.5073C23.9131 28.8923 23.8096 29.4908 23.7107 30.0655C23.5972 30.7214 23.2144 31.9 22.6603 32.3534C22.6136 32.3918 22.4771 32.4985 22.489 32.6207C22.5009 32.7256 22.6181 32.8032 23.0513 32.9856C23.5724 33.2028 23.5642 33.1553 23.7355 33.2529C24.1604 33.4965 24.1018 33.7255 24.4196 33.8368C24.6787 33.928 24.7474 33.7866 25.275 33.8121C25.623 33.8295 25.862 33.8404 25.9838 34.0065C26.1248 34.1999 26.0699 34.5538 25.8858 34.7609C25.6541 35.0245 25.3308 34.9288 24.5661 35.0774C24.1622 35.1559 24.2657 35.1796 23.6127 35.3447C23.4378 35.3894 23.2519 35.436 21.8287 35.6613C21.1657 35.768 20.8305 35.8173 20.6317 35.6367C20.5696 35.5767 20.5202 35.5048 20.4867 35.4253C20.4532 35.3458 20.4361 35.2604 20.4367 35.1741C20.4669 34.6532 21.3003 34.4681 21.2426 34.1515C21.216 34.0037 21.0045 33.8879 20.8515 33.9079C20.6986 33.928 20.65 34.0959 20.4852 34.2728C20.3204 34.4498 20.2059 34.4443 19.4347 34.7354C18.7726 34.9853 18.6902 35.0546 18.6288 35.1249C18.3687 35.4186 18.3413 35.8282 18.3843 35.9523C18.7186 36.923 19.3001 37.6071 20.2654 37.8507C20.5035 37.9109 20.6977 37.7504 20.9495 37.6318C21.4633 37.3891 21.5338 37.1756 22.098 36.756C22.6621 36.3364 23.0376 36.0627 23.4415 36.1475C23.8078 36.2242 23.9095 36.5334 24.2236 36.4887C24.4983 36.4495 24.5414 36.1977 24.8344 36.0992C25.1092 36.008 25.3729 36.1302 25.7136 36.2935C26.6011 36.7213 26.4976 37.1209 27.3997 37.681C27.538 37.7668 27.7303 37.8754 27.766 38.0706C27.798 38.2421 27.6927 38.3972 27.4482 38.7037C27.0993 39.1416 26.9244 39.3605 26.7641 39.5065C26.1972 40.0237 25.6294 40.2965 24.9801 40.6012C24.1677 40.9834 23.762 41.175 23.3188 41.2343C22.9659 41.28 22.6205 41.371 22.2912 41.5052C22.021 41.6147 21.8397 41.7242 21.7289 41.9194C21.656 42.0623 21.6222 42.2219 21.6309 42.3819C21.6684 42.9448 22.7042 43.4876 23.3902 43.6965C25.9389 44.4728 28.7752 42.1976 29.0829 41.944C29.0829 41.944 30.3651 40.8886 31.7709 38.0989C32.0246 37.5962 32.2407 37.1674 32.2105 36.6146C32.1995 36.4121 32.1528 36.1457 32.2105 36.1275C32.2682 36.1092 32.2883 36.4522 32.5283 36.6383C32.6199 36.7036 32.7247 36.7482 32.8354 36.7691C32.9461 36.7901 33.06 36.7868 33.1693 36.7597C33.8214 36.5681 33.6859 35.0556 33.9835 32.3808C33.9991 32.2412 34.043 31.8572 33.9505 31.8334C33.8416 31.8006 33.6236 32.2896 33.4294 32.6125C32.8616 33.5576 31.9449 34.0055 31.5401 34.2026C30.4411 34.7372 28.8604 34.8895 27.5004 34.2026C25.1934 33.0367 24.9123 30.1522 24.894 29.915C24.7896 28.5566 24.796 28.5192 24.796 28.5192C24.8216 28.3787 24.8711 28.1835 24.763 28.0321C24.6339 27.8387 24.306 27.8013 24.0771 27.8751Z" fill="white"/>
<path d="M10.9222 28.9799C10.9598 28.9364 10.9907 28.8875 11.0138 28.8348C11.0394 28.7837 11.0641 28.7317 11.0879 28.6797L11.2308 28.3659C11.3224 28.157 11.4231 27.9481 11.523 27.741C11.7232 27.3268 11.9369 26.9194 12.164 26.5186C12.6241 25.7181 13.1524 24.9584 13.7429 24.248C14.3366 23.5363 15.002 22.887 15.7284 22.3103C16.4567 21.7321 17.2492 21.239 18.0903 20.8407C19.7764 20.0443 21.6474 19.6721 23.5074 19.6547C23.9727 19.6483 24.4388 19.6638 24.9022 19.6985C25.3656 19.7332 25.8299 19.7788 26.2906 19.8563C27.2064 20.0069 28.1296 20.2577 28.9712 20.6929C29.8108 21.1306 30.5573 21.7264 31.1692 22.4472C31.7701 23.1631 32.2955 23.9386 32.7371 24.7616C33.1858 25.5735 33.5879 26.4036 33.9735 27.2447L34.0458 27.4016C34.0696 27.4527 34.0943 27.5066 34.1191 27.5649C34.1667 27.679 34.2106 27.793 34.2427 27.9079C34.3141 28.1369 34.3691 28.3641 34.4259 28.5867C34.5348 29.0309 34.6475 29.4624 34.8563 29.831C34.9587 30.0127 35.0877 30.1781 35.2391 30.3218C35.3939 30.4635 35.5674 30.5835 35.7547 30.6785C36.1432 30.8696 36.5667 30.9801 36.9993 31.0033C37.4445 31.029 37.8911 31.0079 38.3319 30.9403C38.7788 30.8783 39.2248 30.7834 39.6763 30.6867C39.9025 30.6393 40.1342 30.59 40.3659 30.5517C40.484 30.5325 40.6049 30.5161 40.7322 30.5079C40.8714 30.4955 41.0117 30.5048 41.148 30.5353C41.2387 30.5571 41.3229 30.6003 41.3934 30.6612C41.4136 30.6788 41.432 30.6984 41.4484 30.7195L41.4731 30.7515L41.4905 30.7788C41.5127 30.8153 41.5314 30.8538 41.5464 30.8938C41.5949 31.035 41.6112 31.1852 41.594 31.3335C41.5616 31.5866 41.489 31.8329 41.3788 32.0633C41.1732 32.4961 40.9158 32.9026 40.6123 33.2739C40.3173 33.6423 39.995 33.9882 39.6479 34.3084C38.9558 34.9493 38.1783 35.4921 37.3373 35.9213C36.9157 36.1357 36.4778 36.3166 36.0276 36.4622C35.5759 36.6075 35.1118 36.7117 34.6411 36.7733C34.4094 36.8052 34.1832 36.8308 33.9762 36.8773C33.7717 36.9208 33.5753 36.9956 33.3937 37.099C33.0218 37.3108 32.7074 37.6098 32.4779 37.9702C32.2498 38.3413 32.0881 38.7491 31.9998 39.1753C31.9068 39.6134 31.8489 40.0581 31.8268 40.5054C31.7736 41.4094 31.8057 42.3299 31.7755 43.2558C31.7442 44.1867 31.6317 45.1131 31.4394 46.0245C31.0532 47.8429 30.4008 49.5949 29.5033 51.2244C29.0593 52.0413 28.5471 52.8194 27.9721 53.5507C27.6833 53.9172 27.3722 54.2657 27.0407 54.5943C26.7095 54.9272 26.3456 55.2261 25.9545 55.4865C25.7542 55.6173 25.5424 55.7297 25.3217 55.8222C25.0952 55.9185 24.8546 55.9777 24.6092 55.9974C24.3582 56.0117 24.1074 55.9677 23.8765 55.8687C23.6529 55.7719 23.4447 55.6431 23.2583 55.4865C22.899 55.1774 22.5901 54.8145 22.3425 54.411C22.0927 54.0146 21.8847 53.5936 21.7216 53.1548C21.3821 52.2804 21.2329 51.3441 21.2838 50.408C21.3218 49.9421 21.4222 49.4834 21.5824 49.0441C21.7371 48.6053 21.9377 48.1884 22.1172 47.767C22.3092 47.3539 22.4364 46.9139 22.4945 46.4624C22.5348 46.0088 22.4744 45.5519 22.3178 45.1241C22.2406 44.9096 22.145 44.702 22.032 44.5038C21.9161 44.3066 21.7857 44.1181 21.6419 43.94C21.3468 43.5852 21.0115 43.2656 20.6427 42.9876C21.0162 43.2594 21.3571 43.5731 21.6584 43.9227C21.8096 44.0975 21.9477 44.2832 22.0714 44.4783C22.1915 44.6768 22.2942 44.8852 22.3782 45.1013C22.5474 45.5368 22.6181 46.004 22.5852 46.4697C22.5347 46.9327 22.4133 47.3853 22.2253 47.8117C22.0522 48.2395 21.8589 48.6573 21.7179 49.0888C21.5707 49.5175 21.4816 49.9639 21.4532 50.4162C21.4196 51.3258 21.5804 52.2323 21.9249 53.0754C22.0891 53.4969 22.2953 53.9009 22.5403 54.2814C22.7793 54.659 23.0756 54.9976 23.4186 55.2849C23.7593 55.5586 24.1714 55.7611 24.5908 55.7228C25.0103 55.6845 25.4252 55.4856 25.797 55.242C26.1699 54.9884 26.5163 54.698 26.8309 54.3754C27.1499 54.0521 27.4488 53.7097 27.7257 53.35C28.2806 52.6271 28.7735 51.859 29.1993 51.0538C29.6286 50.2496 29.9995 49.4158 30.3092 48.5588C30.6219 47.7041 30.8705 46.8274 31.0529 45.936C31.2351 45.0466 31.3392 44.1431 31.3643 43.2358C31.389 42.3235 31.3505 41.4058 31.3991 40.4734C31.419 40.002 31.4781 39.533 31.5758 39.0713C31.6742 38.5953 31.8549 38.1401 32.1098 37.7257C32.3764 37.3049 32.742 36.9552 33.1748 36.7067C33.3942 36.5802 33.6317 36.4879 33.8791 36.433C34.1218 36.3783 34.3553 36.3528 34.5806 36.3208C35.0253 36.2622 35.4637 36.1632 35.8903 36.0252C36.3175 35.886 36.7331 35.7134 37.133 35.5089C37.9358 35.0969 38.6778 34.5769 39.3383 33.9635C39.6679 33.6594 39.974 33.3309 40.2542 32.981C40.5347 32.6394 40.773 32.2655 40.9639 31.8672C41.0536 31.682 41.1139 31.4841 41.1425 31.2806C41.1531 31.2001 41.1462 31.1183 41.1224 31.0407C41.1172 31.0267 41.1108 31.0133 41.1031 31.0005L41.0976 30.9914C41.0799 30.9777 41.0592 30.9683 41.0372 30.964C40.9468 30.9458 40.8542 30.9409 40.7624 30.9494C40.659 30.9558 40.55 30.9704 40.441 30.9877C40.2212 31.0233 39.9977 31.0708 39.7724 31.1173C38.8731 31.307 37.9408 31.505 36.97 31.4375C36.4784 31.4091 35.9976 31.2815 35.5569 31.0625C35.3329 30.9486 35.1261 30.804 34.9424 30.6329C34.7608 30.4581 34.6065 30.2573 34.4845 30.0372C34.2409 29.6002 34.1264 29.1249 34.0192 28.6825C33.9652 28.458 33.9139 28.2382 33.8498 28.0275C33.8178 27.9225 33.782 27.8195 33.7408 27.7209C33.7207 27.6735 33.6987 27.6224 33.674 27.5686L33.6035 27.4117C33.2252 26.576 32.8323 25.7495 32.3955 24.9486C31.9707 24.1472 31.466 23.3905 30.889 22.6898C30.3139 21.9971 29.609 21.4223 28.8137 20.9976C28.0188 20.5743 27.1377 20.3216 26.2421 20.1647C25.7942 20.0844 25.3391 20.0333 24.8839 19.995C24.4287 19.9567 23.9681 19.9357 23.5102 19.9366C22.5956 19.9348 21.6832 20.024 20.7865 20.203C19.89 20.3834 19.0168 20.6644 18.1837 21.0404C17.3492 21.4171 16.5607 21.8879 15.8337 22.4435C15.1061 23.0018 14.4378 23.6327 13.8391 24.3264C13.2392 25.022 12.7 25.7673 12.2272 26.5542C11.9885 26.9464 11.7644 27.3472 11.555 27.7565C11.4497 27.9609 11.348 28.167 11.2473 28.3732L11.0962 28.6834C11.0705 28.7345 11.0449 28.7865 11.0174 28.8366C10.9931 28.8889 10.961 28.9371 10.9222 28.9799Z" fill="#333333"/>
<path d="M22.304 47.8398L22.0082 48.5376H27.8585L30.5198 47.7157L30.7067 46.9102L22.304 47.8398Z" fill="#231F20"/>
<path d="M8.14355 34.374V41.1293L10.4423 42.9L11.4909 43.5386L12.0633 42.8517L13.1998 43.6472V37.5496L10.1996 34.374H8.14355Z" fill="#EE2A39"/>
<path d="M4.60391 31.9136L4.50684 34.5345L6.02252 34.8246L6.20386 33.1333L4.60391 31.9136Z" fill="#EE2A39"/>
<path d="M14.1577 38.7529V45.4872L16.9546 46.3229V41.1586L14.1577 38.7529Z" fill="#F04D25"/>
<path d="M13.9645 16.9253L12.3472 20.1383L15.2247 19.9932V17.3595L13.9645 16.9253Z" fill="#F47524"/>
<path d="M15.9766 15.669L15.6616 17.0456L17.5289 17.6741L17.626 15.4272L15.9766 15.669Z" fill="#F47524"/>
<path d="M22.2335 14.34L23.446 15.6691L24.6824 14.5297L23.4579 13.1084L22.2335 14.34Z" fill="#F47524"/>
<path d="M22.8397 10.1616L23.7363 11.3931L24.6824 10.282L23.761 9.31592L22.8397 10.1616Z" fill="#F47524"/>
<path d="M19.3111 8.05957L18.6443 10.644L21.3121 10.5236L19.3111 8.05957Z" fill="#F47524"/>
<path d="M13.7456 6.17578L13.3582 9.02568L17.5041 10.1614L13.7456 6.17578Z" fill="#F47524"/>
<path d="M26.8291 13.6318L25.3006 15.4272L27.7742 16.4051L26.8291 13.6318Z" fill="#F47524"/>
<path d="M32.1518 13.1083L34.3177 12.4077V15.2905L32.1518 13.1083Z" fill="#F47524"/>
<path d="M36.7593 16.792L36.2016 18.3018L38.3474 19.3044L38.7595 16.792H36.7593Z" fill="#F47524"/>
<path d="M40.8329 13.7285V16.707L42.3853 15.0185L40.8329 13.7285Z" fill="#F47524"/>
<path d="M31.9412 2.13379L30.2598 3.50218L32.4751 4.54946L31.9412 2.13379Z" fill="#F47524"/>
<path d="M34.1767 9.24756L32.1518 11.1396L34.2609 11.3932L34.1767 9.24756Z" fill="#F47524"/>
<path d="M44.0346 26.9985H41.2716V29.3777H44.0346V26.9985Z" fill="#F47524"/>
<path d="M43.9696 23.52H41.8358V25.3719H43.9696V23.52Z" fill="#F47524"/>
<path d="M42.3742 34.6548H42.845L44.9312 36.6554L43.2846 39.124L39.4729 35.1711L42.3742 34.6548Z" fill="#ED1C24"/>
<path d="M35.4553 37.9746L34.7629 38.6323L34.8692 44.843L39.5966 42.0278V38.1689L35.4553 37.9746Z" fill="#F47524"/>
<path d="M47.2354 20.3472H44.2526V23.4388H47.2354V20.3472Z" fill="#F47524"/>
<path d="M29.1443 3.14476C29.6465 3.14476 30.0537 2.73918 30.0537 2.23888C30.0537 1.73858 29.6465 1.33301 29.1443 1.33301C28.642 1.33301 28.2349 1.73858 28.2349 2.23888C28.2349 2.73918 28.642 3.14476 29.1443 3.14476Z" fill="#F47524"/>
<path d="M30.1389 5.35501C30.4671 5.35501 30.7332 5.08994 30.7332 4.76295C30.7332 4.43597 30.4671 4.1709 30.1389 4.1709C29.8106 4.1709 29.5445 4.43597 29.5445 4.76295C29.5445 5.08994 29.8106 5.35501 30.1389 5.35501Z" fill="#F47524"/>
<path d="M29.2661 13.4953C29.6879 13.4953 30.0299 13.1547 30.0299 12.7345C30.0299 12.3143 29.6879 11.9736 29.2661 11.9736C28.8443 11.9736 28.5023 12.3143 28.5023 12.7345C28.5023 13.1547 28.8443 13.4953 29.2661 13.4953Z" fill="#F47524"/>
<path d="M13.4223 5.145C13.9716 5.145 14.4169 4.70145 14.4169 4.15429C14.4169 3.60713 13.9716 3.16357 13.4223 3.16357C12.873 3.16357 12.4277 3.60713 12.4277 4.15429C12.4277 4.70145 12.873 5.145 13.4223 5.145Z" fill="#F47524"/>
<path d="M12.3233 7.31099C12.6673 7.31099 12.9461 7.03325 12.9461 6.69065C12.9461 6.34805 12.6673 6.07031 12.3233 6.07031C11.9794 6.07031 11.7006 6.34805 11.7006 6.69065C11.7006 7.03325 11.9794 7.31099 12.3233 7.31099Z" fill="#F47524"/>
<path d="M24.8527 11.0996V14.0946L26.7924 12.5975L24.8527 11.0996Z" fill="#F47524"/>
<path d="M8.59689 26.8853H3.9729V30.8472H8.59689V26.8853Z" fill="#F47524"/>
<path d="M8.40275 17.5127H4.49036V21.7967H8.40275V17.5127Z" fill="#5BBFAF"/>
<path d="M3.77961 21.7969H0.545837V23.4399H3.77961V21.7969Z" fill="#ED1C24"/>
<path d="M3.61751 25.0815H0.545837V26.5795H3.61751V25.0815Z" fill="#F47524"/>
<path d="M8.40275 20.2988H4.49036V21.7968H8.40275V20.2988Z" fill="#F47524"/>
<path d="M2.65965 17.0465C3.04152 17.0465 3.35109 16.7381 3.35109 16.3577C3.35109 15.9773 3.04152 15.6689 2.65965 15.6689C2.27777 15.6689 1.9682 15.9773 1.9682 16.3577C1.9682 16.7381 2.27777 17.0465 2.65965 17.0465Z" fill="#5BBFAF"/>
<path d="M4.97929 17.0465C5.36116 17.0465 5.67074 16.7381 5.67074 16.3577C5.67074 15.9773 5.36116 15.6689 4.97929 15.6689C4.59741 15.6689 4.28784 15.9773 4.28784 16.3577C4.28784 16.7381 4.59741 17.0465 4.97929 17.0465Z" fill="#5BBFAF"/>
<path d="M9.3808 16.7803L9.67203 19.268L11.7812 18.3986L11.0787 16.9253L9.3808 16.7803Z" fill="#5BBFAF"/>
<path d="M9.55023 19.5332V21.563L10.9331 22.7462V20.5723L9.55023 19.5332Z" fill="#ED1C24"/>
<path d="M11.1109 19.6064L11.3371 21.7083L9.92212 21.9254V22.8678L12.2749 21.8533V22.5293L13.3171 22.5777L11.1109 19.6064Z" fill="#F47524"/>
<path d="M13.3582 12.2871V15.4271L15.6615 13.0361L13.3582 12.2871Z" fill="#ED1C24"/>
<path d="M7.43282 13.5034L7.31926 16.3579L5.67078 14.8399L7.43282 13.5034Z" fill="#5BBFAF"/>
<path d="M7.57849 13.6318L7.6426 15.4272L12.4443 15.2256L7.57849 13.6318Z" fill="#ED1C24"/>
<path d="M4.83008 12.5845L5.52518 14.3397L6.33294 13.0515L4.83008 12.5845Z" fill="#ED1C24"/>
<path d="M18.2808 14.8832L20.3414 13.8569L20.1967 16.1759L18.2808 14.8832Z" fill="#ED1C24"/>
<path d="M17.7955 12.7945L18.6444 13.6319L19.4934 12.5847L18.6444 11.562L17.7955 12.7945Z" fill="#ED1C24"/>
<path d="M14.1092 6.17578L17.2624 9.79928L18.5473 6.17578H14.1092Z" fill="#5BBFAF"/>
<path d="M15.9766 2.21436L15.6616 4.43662L17.7954 3.49426L15.9766 2.21436Z" fill="white"/>
<path d="M18.9841 0.982422L17.9895 2.72119H20.1966L18.9841 0.982422Z" fill="white"/>
<path d="M11.054 8.05957V9.89504L8.72601 12.287L12.186 13.462V8.05957H11.054Z" fill="#5BBFAF"/>
<path d="M29.169 14.8599L30.1508 17.3841L31.0721 14.8599H29.169Z" fill="#5BBFAF"/>
<path d="M32.4907 15.6689L30.1205 17.6659L32.7902 17.7462L32.4907 15.6689Z" fill="#ED1C24"/>
<path d="M34.4469 18.0762L32.7902 19.8314L35.708 19.9764L34.4469 18.0762Z" fill="#ED1C24"/>
<path d="M35.5038 20.7822L33.2857 23.7571L34.5779 24.1056L34.4735 23.3046L37.1633 24.3492L35.5908 22.9041L35.5038 20.7822Z" fill="#ED1C24"/>
<path d="M36.9535 21.0077L37.0744 23.0484L38.4445 21.9008L38.3593 20.0771L36.9535 21.0077Z" fill="#ED1C24"/>
<path d="M35.5468 15.0187L38.6185 14.0991V15.3708L35.5468 15.0187Z" fill="#5BBFAF"/>
<path d="M38.7595 14.0342V15.3707L40.7523 15.4354V13.3901L38.7595 14.0342Z" fill="white"/>
<path d="M43.6949 12.7778L43.5328 14.8596H45.4569L43.6949 12.7778Z" fill="#5BBFAF"/>
<path d="M35.5468 8.16846V13.4951L38.8685 12.4077L38.9903 8.16846H35.5468Z" fill="#ED1C24"/>
<path d="M29.2258 6.19141L30.551 9.92803L33.8819 6.19141H29.2258Z" fill="#ED1C24"/>
<path d="M28.2074 7.85107L29.2899 10.6444L26.1376 10.4592L28.2074 7.85107Z" fill="#5BBFAF"/>
<path d="M40.397 8.86523L40.4611 11.5701L42.9997 11.6349L42.9182 10.25L41.9163 8.86523H40.397Z" fill="#5BBFAF"/>
<path d="M37.2686 25.1138C37.1962 25.1621 35.1622 26.9009 35.1622 26.9009L37.5351 28.0576L37.2686 25.1138Z" fill="#F47524"/>
<path d="M38.9353 25.9775L36.5587 28.1998H39.9537L38.9353 25.9775Z" fill="#5BBFAF"/>
<path d="M45.2143 29.8315V30.9427L46.4919 31.3778L47.0414 29.8963L45.2143 29.8315Z" fill="#5BBFAF"/>
<path d="M47.599 25.1138H44.2526V26.5871H47.599V25.1138Z" fill="#ED1C24"/>
<path d="M41.6251 23.52H39.3136V25.1146H41.6251V23.52Z" fill="white"/>
<path d="M43.7067 17.6011H39.5233V21.7683H43.7067V17.6011Z" fill="#F47524"/>
<path d="M42.9997 12.1987L41.6984 13.2287L42.7891 14.5496L42.9997 12.1987Z" fill="#ED1C24"/>
<path d="M38.2567 39.3713C38.809 39.3713 39.2567 38.9253 39.2567 38.3751C39.2567 37.8249 38.809 37.3789 38.2567 37.3789C37.7043 37.3789 37.2566 37.8249 37.2566 38.3751C37.2566 38.9253 37.7043 39.3713 38.2567 39.3713Z" fill="#231F20" stroke="#231F20" stroke-width="0.25" stroke-miterlimit="10"/>
<path d="M35.2134 39.3713C35.7657 39.3713 36.2135 38.9253 36.2135 38.3751C36.2135 37.8249 35.7657 37.3789 35.2134 37.3789C34.6611 37.3789 34.2133 37.8249 34.2133 38.3751C34.2133 38.9253 34.6611 39.3713 35.2134 39.3713Z" fill="#231F20" stroke="#231F20" stroke-width="0.25" stroke-miterlimit="10"/>
<path d="M44.2526 32.8102C44.8049 32.8102 45.2527 32.3642 45.2527 31.8141C45.2527 31.2639 44.8049 30.8179 44.2526 30.8179C43.7003 30.8179 43.2525 31.2639 43.2525 31.8141C43.2525 32.3642 43.7003 32.8102 44.2526 32.8102Z" fill="#231F20" stroke="#231F20" stroke-width="0.25" stroke-miterlimit="10"/>
<path d="M35.2134 42.1257C35.7657 42.1257 36.2135 41.6797 36.2135 41.1295C36.2135 40.5793 35.7657 40.1333 35.2134 40.1333C34.6611 40.1333 34.2133 40.5793 34.2133 41.1295C34.2133 41.6797 34.6611 42.1257 35.2134 42.1257Z" fill="#231F20" stroke="#231F20" stroke-width="0.25" stroke-miterlimit="10"/>
<path d="M23.6622 14.6665V18.8939L19.8542 15.077L20.2425 14.6665H23.6622Z" fill="white"/>
<path d="M44.9313 33.9223C45.5382 33.9223 46.0303 33.4322 46.0303 32.8276C46.0303 32.223 45.5382 31.7329 44.9313 31.7329C44.3243 31.7329 43.8323 32.223 43.8323 32.8276C43.8323 33.4322 44.3243 33.9223 44.9313 33.9223Z" fill="white"/>
<path d="M47.599 26.7686H43.8038V27.1462H47.599V26.7686Z" fill="white"/>
<path d="M47.599 27.4136H43.8038V27.7912H47.599V27.4136Z" fill="white"/>
<path d="M47.599 28.061H43.8038V28.4387H47.599V28.061Z" fill="white"/>
<path d="M40.6269 24.2077L39.0023 23.1567L37.8602 24.3171C37.8602 24.3171 39.0242 25.5368 39.0609 25.5368C39.0975 25.5368 40.6269 24.2077 40.6269 24.2077Z" fill="#5BBFAF"/>
<path d="M47.0899 19.0259H44.39V20.5074H47.0899V19.0259Z" fill="#5BBFAF"/>
<path d="M42.9997 16.9735C43.3614 16.9735 43.6545 16.6814 43.6545 16.3212C43.6545 15.961 43.3614 15.6689 42.9997 15.6689C42.6381 15.6689 42.3449 15.961 42.3449 16.3212C42.3449 16.6814 42.6381 16.9735 42.9997 16.9735Z" fill="#ED1C24"/>
<path d="M45.391 16.9735C45.7526 16.9735 46.0458 16.6814 46.0458 16.3212C46.0458 15.961 45.7526 15.6689 45.391 15.6689C45.0293 15.6689 44.7361 15.961 44.7361 16.3212C44.7361 16.6814 45.0293 16.9735 45.391 16.9735Z" fill="#ED1C24"/>
<path d="M34.5888 5.13676C35.1245 5.13676 35.5587 4.70423 35.5587 4.17067C35.5587 3.63712 35.1245 3.20459 34.5888 3.20459C34.0532 3.20459 33.619 3.63712 33.619 4.17067C33.619 4.70423 34.0532 5.13676 34.5888 5.13676Z" fill="white"/>
<path d="M35.8234 7.27517C36.1238 7.27517 36.3674 7.03256 36.3674 6.73329C36.3674 6.43402 36.1238 6.19141 35.8234 6.19141C35.5229 6.19141 35.2794 6.43402 35.2794 6.73329C35.2794 7.03256 35.5229 7.27517 35.8234 7.27517Z" fill="#ED1C24"/>
<path d="M37.6513 6.73318C38.1976 6.73318 38.6404 6.29207 38.6404 5.74794C38.6404 5.2038 38.1976 4.7627 37.6513 4.7627C37.1051 4.7627 36.6622 5.2038 36.6622 5.74794C36.6622 6.29207 37.1051 6.73318 37.6513 6.73318Z" fill="#5BBFAF"/>
<path d="M39.918 8.16821C40.2493 8.16821 40.5178 7.90068 40.5178 7.57067C40.5178 7.24067 40.2493 6.97314 39.918 6.97314C39.5867 6.97314 39.3181 7.24067 39.3181 7.57067C39.3181 7.90068 39.5867 8.16821 39.918 8.16821Z" fill="#F47524"/>
<path d="M17.9978 5.56392C18.3417 5.56392 18.6205 5.28618 18.6205 4.94358C18.6205 4.60098 18.3417 4.32324 17.9978 4.32324C17.6538 4.32324 17.375 4.60098 17.375 4.94358C17.375 5.28618 17.6538 5.56392 17.9978 5.56392Z" fill="#ED1C24"/>
<path d="M10.456 6.81885C11.0321 6.81885 11.4991 6.35365 11.4991 5.77979C11.4991 5.20593 11.0321 4.74072 10.456 4.74072C9.87993 4.74072 9.4129 5.20593 9.4129 5.77979C9.4129 6.35365 9.87993 6.81885 10.456 6.81885Z" fill="white"/>
<path d="M8.14993 8.19285C8.50145 8.19285 8.78642 7.90899 8.78642 7.55883C8.78642 7.20867 8.50145 6.9248 8.14993 6.9248C7.7984 6.9248 7.51343 7.20867 7.51343 7.55883C7.51343 7.90899 7.7984 8.19285 8.14993 8.19285Z" fill="#ED1C24"/>
<path d="M3.05333 33.8922C3.64258 33.8922 4.12026 33.4163 4.12026 32.8294C4.12026 32.2424 3.64258 31.7666 3.05333 31.7666C2.46407 31.7666 1.98639 32.2424 1.98639 32.8294C1.98639 33.4163 2.46407 33.8922 3.05333 33.8922Z" fill="white"/>
<path d="M9.21048 36.0181C9.79974 36.0181 10.2774 35.5423 10.2774 34.9554C10.2774 34.3684 9.79974 33.8926 9.21048 33.8926C8.62123 33.8926 8.14355 34.3684 8.14355 34.9554C8.14355 35.5423 8.62123 36.0181 9.21048 36.0181Z" fill="#231F20" stroke="#231F20" stroke-width="0.25" stroke-miterlimit="10"/>
<path d="M9.21048 38.9307C9.79974 38.9307 10.2774 38.4549 10.2774 37.868C10.2774 37.281 9.79974 36.8052 9.21048 36.8052C8.62123 36.8052 8.14355 37.281 8.14355 37.868C8.14355 38.4549 8.62123 38.9307 9.21048 38.9307Z" fill="#231F20" stroke="#231F20" stroke-width="0.25" stroke-miterlimit="10"/>
<path d="M6.42179 30.4039C7.01104 30.4039 7.48872 29.9281 7.48872 29.3411C7.48872 28.7541 7.01104 28.2783 6.42179 28.2783C5.83254 28.2783 5.35486 28.7541 5.35486 29.3411C5.35486 29.9281 5.83254 30.4039 6.42179 30.4039Z" fill="#231F20" stroke="#231F20" stroke-width="0.25" stroke-miterlimit="10"/>
<path d="M12.1329 38.9307C12.7221 38.9307 13.1998 38.4549 13.1998 37.868C13.1998 37.281 12.7221 36.8052 12.1329 36.8052C11.5436 36.8052 11.0659 37.281 11.0659 37.868C11.0659 38.4549 11.5436 38.9307 12.1329 38.9307Z" fill="#231F20" stroke="#231F20" stroke-width="0.25" stroke-miterlimit="10"/>
<path d="M12.1329 41.8707C12.7221 41.8707 13.1998 41.3949 13.1998 40.8079C13.1998 40.2209 12.7221 39.7451 12.1329 39.7451C11.5436 39.7451 11.0659 40.2209 11.0659 40.8079C11.0659 41.3949 11.5436 41.8707 12.1329 41.8707Z" fill="#231F20" stroke="#231F20" stroke-width="0.25" stroke-miterlimit="10"/>
<path d="M15.429 43.0525C15.8619 43.0525 16.2129 42.7029 16.2129 42.2716C16.2129 41.8403 15.8619 41.4907 15.429 41.4907C14.996 41.4907 14.645 41.8403 14.645 42.2716C14.645 42.7029 14.996 43.0525 15.429 43.0525Z" fill="#231F20" stroke="#231F20" stroke-width="0.25" stroke-miterlimit="10"/>
<path d="M15.8877 39.1514C16.4769 39.1514 16.9546 38.6756 16.9546 38.0887C16.9546 37.5017 16.4769 37.0259 15.8877 37.0259C15.2984 37.0259 14.8207 37.5017 14.8207 38.0887C14.8207 38.6756 15.2984 39.1514 15.8877 39.1514Z" fill="#231F20" stroke="#231F20" stroke-width="0.25" stroke-miterlimit="10"/>
<path d="M15.8877 45.1851C16.4769 45.1851 16.9546 44.7093 16.9546 44.1224C16.9546 43.5354 16.4769 43.0596 15.8877 43.0596C15.2984 43.0596 14.8207 43.5354 14.8207 44.1224C14.8207 44.7093 15.2984 45.1851 15.8877 45.1851Z" fill="#231F20" stroke="#231F20" stroke-width="0.25" stroke-miterlimit="10"/>
<path d="M6.28446 34.3409C6.87371 34.3409 7.3514 33.8651 7.3514 33.2781C7.3514 32.6912 6.87371 32.2153 6.28446 32.2153C5.69521 32.2153 5.21753 32.6912 5.21753 33.2781C5.21753 33.8651 5.69521 34.3409 6.28446 34.3409Z" fill="#231F20" stroke="#231F20" stroke-width="0.25" stroke-miterlimit="10"/>
<path d="M7.4896 32.1436L4.91888 34.6313L7.4896 37.6746V32.1436Z" fill="#5BBFAF"/>
<path d="M8.40274 23.4385H3.9729V25.2584H8.40274V23.4385Z" fill="white"/>
<path d="M6.28437 23.5835L4.73297 25.0814H6.18729L6.28437 23.5835Z" fill="#F47524"/>
<path d="M1.62829 17.2871L1.06323 18.6236L0.691406 20.6524H3.86015V19.0742L1.62829 17.2871Z" fill="#ED1C24"/>
<path d="M4.13046 12.7313C4.05811 12.828 3.22105 13.4612 3.22105 13.4612L2.5177 14.8706H4.49038V12.5845L4.13046 12.7313Z" fill="#ED1C24"/>
<path d="M7.51344 8.80859H5.9254L4.83008 10.2335L4.88228 11.7315H7.51344V8.80859Z" fill="white"/>
<path d="M23.979 3.34131V8.34962H24.7794L27.156 5.84546V3.34131H23.979Z" fill="#5BBFAF"/>
<path d="M20.9724 3.59036V8.47004H23.7611V3.34131H20.9358L20.9724 3.59036Z" fill="#ED1C24"/>
<path d="M8.82308 23.1328L7.23871 24.2923L9.06578 25.5156L9.92207 24.3242L8.82308 23.1328Z" fill="#ED1C24"/>
<path d="M28.821 19.9685C29.3733 19.9685 29.8211 19.5224 29.8211 18.9723C29.8211 18.4221 29.3733 17.9761 28.821 17.9761C28.2687 17.9761 27.8209 18.4221 27.8209 18.9723C27.8209 19.5224 28.2687 19.9685 28.821 19.9685Z" fill="white"/>
<path d="M33.8004 44.022L34.7217 45.0118L38.7714 42.2586L39.9116 41.1292L38.7229 40.1567L33.8004 44.022Z" fill="#5BBFAF"/>
<path d="M43.7068 18.894H41.6151V20.0772H43.7068V18.894Z" fill="#231F20"/>
<path d="M41.1608 20.4522C41.6965 20.4522 42.1307 20.0197 42.1307 19.4861C42.1307 18.9525 41.6965 18.52 41.1608 18.52C40.6252 18.52 40.191 18.9525 40.191 19.4861C40.191 20.0197 40.6252 20.4522 41.1608 20.4522Z" fill="#231F20"/>
<path d="M43.7067 20.7173H39.5233V21.7682H43.7067V20.7173Z" fill="#ED1C24"/>
<path d="M46.4908 17.6011H44.1307V19.3043H46.4908V17.6011Z" fill="#ED1C24"/>
<path d="M0.978088 29.8965L1.68144 31.4181L2.76028 30.983V29.8965H0.978088Z" fill="#F47524"/>
<path d="M4.16704 26.7803H0.614563V27.1452H4.16704V26.7803Z" fill="white"/>
<path d="M4.16704 27.4927H0.614563V27.8576H4.16704V27.4927Z" fill="white"/>
<path d="M4.16704 28.2051H0.614563V28.57H4.16704V28.2051Z" fill="white"/>
<path d="M3.71821 34.6548L2.9425 35.0297L4.33639 37.3122L5.91252 39.414L6.6406 38.4835L3.71821 34.6548Z" fill="white"/>
<path d="M24.4041 8.4464V6.36279H23.2162V8.4464H24.4041Z" fill="#231F20"/>
<path d="M23.8096 6.87553C24.3452 6.87553 24.7794 6.443 24.7794 5.90944C24.7794 5.37589 24.3452 4.94336 23.8096 4.94336C23.2739 4.94336 22.8397 5.37589 22.8397 5.90944C22.8397 6.443 23.2739 6.87553 23.8096 6.87553Z" fill="#231F20"/>
</svg>
