<svg width="172" height="75px" viewBox="0 0 172 75" fill="none" xmlns="http://www.w3.org/2000/svg"><path d="M10.651 11.2513C10.651 9.86447 9.52755 8.74023 8.14167 8.74023C6.7558 8.74023 5.63232 9.86447 5.63232 11.2513V23.0434C5.63232 24.4302 6.7558 25.5544 8.14167 25.5544C9.52755 25.5544 10.651 24.4302 10.651 23.0434V11.2513Z" fill="#F2F2F2"></path><path d="M18.5832 8.56281C18.5832 7.17599 17.4597 6.05176 16.0738 6.05176C14.6879 6.05176 13.5645 7.17599 13.5645 8.56281V18.4503C13.5645 19.8371 14.6879 20.9614 16.0738 20.9614C17.4597 20.9614 18.5832 19.8371 18.5832 18.4503V8.56281Z" fill="#F2F2F2"></path><path d="M38.007 11.2513C38.007 9.86447 36.8835 8.74023 35.4976 8.74023C34.1118 8.74023 32.9883 9.86447 32.9883 11.2513V40.2358C32.9883 41.6226 34.1118 42.7468 35.4976 42.7468C36.8835 42.7468 38.007 41.6226 38.007 40.2358V11.2513Z" fill="#F2F2F2"></path><path d="M47.4962 21.1898C47.4962 19.8029 46.3728 18.6787 44.9869 18.6787C43.601 18.6787 42.4775 19.8029 42.4775 21.1898V53.285C42.4775 54.6718 43.601 55.796 44.9869 55.796C46.3728 55.796 47.4962 54.6718 47.4962 53.285V21.1898Z" fill="#F2F2F2"></path><path d="M37.5713 68.6919C37.3971 68.9979 37.1517 69.2574 36.8558 69.4483C36.6718 69.5573 36.3924 69.7209 36.0517 69.9014C33.6758 71.1422 31.0882 71.9257 28.4231 72.2115C22.4811 72.961 17.2 71.1314 16.6787 70.944C14.7435 70.2626 8.46413 67.7379 4.1541 61.1928C0.834899 56.0777 -0.529554 49.9377 0.310858 43.8982C0.652804 41.5772 1.312 39.3141 2.26996 37.1725C2.26996 37.1725 2.61067 36.3991 3.16944 35.3463C3.82799 34.0973 4.61107 32.9182 5.50674 31.8267C6.31598 30.8781 7.17703 29.975 8.08594 29.1215C8.76486 28.4441 9.48882 27.8135 10.2529 27.2339C10.907 26.7556 11.5897 26.3175 12.2971 25.9222C14.1717 24.8471 16.1645 23.993 18.2358 23.377C20.2255 22.8216 21.8201 22.5525 21.8201 22.5525C22.7843 22.4366 22.8422 21.3532 22.8422 21.1249V2.66506C22.8298 2.32774 22.8855 1.99139 23.006 1.6761C23.1265 1.3608 23.3093 1.07303 23.5436 0.83C23.7778 0.586967 24.0587 0.393645 24.3693 0.261607C24.68 0.129569 25.014 0.0615234 25.3516 0.0615234C25.6891 0.0615234 26.0232 0.129569 26.3338 0.261607C26.6445 0.393645 26.9253 0.586967 27.1596 0.83C27.3938 1.07303 27.5766 1.3608 27.6972 1.6761C27.8177 1.99139 27.8734 2.32774 27.8609 2.66506V51.7039C27.8734 52.0412 27.8177 52.3776 27.6972 52.6929C27.5766 53.0082 27.3938 53.2959 27.1596 53.539C26.9253 53.782 26.6445 53.9753 26.3338 54.1074C26.0232 54.2394 25.6891 54.3075 25.3516 54.3075C25.014 54.3075 24.68 54.2394 24.3693 54.1074C24.0587 53.9753 23.7778 53.782 23.5436 53.539C23.3093 53.2959 23.1265 53.0082 23.006 52.6929C22.8855 52.3776 22.8298 52.0412 22.8422 51.7039V28.239C22.7814 28.0667 22.6682 27.9178 22.5185 27.8131C22.3979 27.732 22.2581 27.6839 22.1131 27.6734C21.4271 27.6709 20.745 27.7778 20.0927 27.9903C19.6558 28.1014 19.2248 28.2344 18.8014 28.3889C16.8982 29.1016 15.0937 30.0542 13.4317 31.2236C11.1916 32.922 9.3206 35.0584 7.93261 37.503C6.94535 39.0384 6.19315 40.7128 5.70094 42.4706C5.20737 44.3952 5.02108 46.3856 5.14898 48.3683C5.24099 49.8042 5.48541 51.2261 5.87811 52.6102C6.79804 55.8402 9.19326 60.8964 14.3585 64.2285C16.4876 65.6039 18.8629 66.5539 21.3533 67.0258C22.8452 67.2983 24.3627 67.4046 25.878 67.3427C27.7847 67.2553 29.6736 66.9361 31.5032 66.3921C32.2008 66.195 32.8775 65.9303 33.5236 65.6016C33.7727 65.4524 34.0364 65.3291 34.3106 65.2337C34.7345 65.0843 35.1841 65.0218 35.6326 65.0497C36.3868 65.1533 37.0736 65.5393 37.5542 66.1297C37.5883 66.2524 38.1948 67.7004 37.5713 68.6919Z" fill="#F2F2F2"></path><path d="M57.3359 0.102539V35.1653C58.1477 33.2478 59.1427 31.4131 60.3069 29.6867C60.893 28.8179 61.4892 28.0274 62.0753 27.3017C63.0122 26.2148 65.0565 23.8605 67.295 21.5096C68.8963 19.8264 69.973 18.7838 70.651 18.1637C71.0871 17.7549 71.4551 17.421 71.714 17.1927V8.81116C71.714 8.81116 71.588 1.58464 63.605 0.102539H57.3359Z" fill="#F2F2F2"></path><path d="M57.3359 55.1183V43.3739C57.4506 42.0664 57.6786 40.7714 58.0174 39.5034C58.2116 38.7811 58.3989 38.2257 58.5727 37.7249C58.9771 36.5421 59.4422 35.381 59.9662 34.2462C60.8144 32.5253 61.8301 30.8922 62.9986 29.3706C64.3295 27.5424 65.7759 25.8012 67.329 24.1577C67.6391 23.817 67.3801 24.1066 70.4329 20.9754C72.8554 18.4916 73.3733 17.9465 74.3852 17.1185C75.3912 16.2239 76.5048 15.4582 77.7004 14.8392C79.1549 14.1246 80.7209 13.6636 82.3307 13.4763C84.2107 13.2859 86.1097 13.4383 87.9354 13.9261C89.2417 14.2311 90.4939 14.7332 91.6492 15.415C93.6963 16.7089 95.3191 18.5746 96.3169 20.7812C97.2737 18.8818 98.5184 17.1418 100.007 15.6228C103.056 12.5775 106.941 10.5069 111.169 9.67396C111.169 9.67396 125.887 6.66206 133.315 17.5104C134.371 19.1145 135.283 20.8087 136.041 22.5734C137.148 25.4023 137.776 28.3963 137.898 31.4319C137.994 33.1143 137.955 34.8017 137.782 36.4779H111.261C111.261 36.4779 108.535 36.8186 109.53 39.2615C109.53 39.2615 112.542 46.1507 122.518 42.839C122.518 42.839 126.582 40.6925 130.535 42.2359C130.535 42.2359 133.059 43.6294 133.887 44.3824C134.715 45.1354 136.109 46.3415 136.109 46.3415C136.109 46.3415 130.572 54.2086 120.937 54.9616C120.937 54.9616 112.579 56.1302 106.555 53.2307C106.555 53.2307 101.584 50.7061 100.423 49.2751C100.021 47.634 99.7411 45.9657 99.5844 44.2836C99.4106 42.4472 99.2437 40.6414 99.6866 38.3416C99.8073 37.6995 99.9643 37.0647 100.157 36.4404C101.058 34.2488 102.586 32.3717 104.549 31.0435C105.989 30.0911 107.615 29.4537 109.319 29.173C109.319 29.173 111.128 28.7948 111.652 28.7573C112.177 28.7198 123.4 28.6449 123.4 28.6449C123.4 28.6449 122.797 20.6654 115.87 20.6654C115.87 20.6654 110.487 19.9499 108.416 27.4047C108.416 27.4047 101.414 28.7948 98.8178 34.6312C98.8178 34.6312 97.8365 37.4932 97.8365 37.8305C97.8365 38.1678 97.874 55.2069 97.874 55.2069H92.0103C89.9474 55.1079 87.9817 54.3004 86.4448 52.9207C84.908 51.5409 83.8941 49.6732 83.5743 47.6328L83.3869 32.2735C83.3869 32.2735 83.2744 26.0998 77.513 26.2871C76.1743 26.2839 74.8769 26.7505 73.8469 27.6057C72.1229 29.0776 71.8435 31.2479 71.7174 32.2735C71.6391 32.8936 71.697 32.9549 71.7174 34.8697C71.7379 36.7845 71.6902 37.7658 71.6595 39.299C71.6323 40.9344 71.622 43.3262 71.7174 46.5664C71.6731 47.2478 71.3767 50.6549 68.5454 53.1047C67.2264 54.2119 65.6279 54.9345 63.9253 55.1932L57.3359 55.1183Z" fill="#F2F2F2"></path><path d="M132.279 9.29492L145.281 41.8398L150.8 26.8485L146.995 14.5828C146.544 13.2473 145.747 12.0553 144.685 11.1281C143.623 10.201 142.335 9.57199 140.95 9.30513L132.279 9.29492Z" fill="#F2F2F2"></path><path d="M171.652 9.30268L157.955 45.7318C157.403 47.3332 156.606 48.8398 155.594 50.1985C154.825 51.3115 153.875 52.2881 152.783 53.0877C151.776 53.8083 150.657 54.3585 149.472 54.7164C148.447 55.0035 147.396 55.1806 146.334 55.2445C145.044 55.3022 143.751 55.2269 142.477 55.0196C141.33 54.8697 140.192 54.6548 139.07 54.3757C138.35 54.1303 137.603 53.8498 136.831 53.5341C135.792 53.1048 134.835 52.6584 133.962 52.2087C134.142 51.654 134.352 51.1092 134.589 50.5767C134.884 49.8334 135.263 49.1258 135.717 48.4677C137.026 46.7529 138.957 45.623 141.094 45.3229C141.701 45.2597 142.313 45.2597 142.92 45.3229C143.08 45.3229 144.552 45.391 145.376 44.6415C145.62 44.4129 145.832 44.1528 146.007 43.868C146.088 43.7318 146.129 43.6364 146.347 43.1389C146.487 42.8323 146.603 42.587 146.671 42.437L152.521 27.1288L157.516 13.841C157.961 12.8683 158.601 11.9973 159.397 11.2822C160.611 10.2302 162.1 9.54702 163.69 9.31291C164.644 9.14255 165.052 9.21751 167.656 9.27544C169.39 9.30269 170.78 9.30608 171.652 9.30268Z" fill="#F2F2F2"></path><path d="M57.5191 59.0478H59.1486L62.9802 68.4065H63.1123L66.9439 59.0478H68.5734V70.3223H67.2962V61.7563H67.1861L63.6628 70.3223H62.4297L58.9064 61.7563H58.7963V70.3223H57.5191V59.0478ZM74.5699 70.4984C73.8065 70.4984 73.1367 70.3168 72.5605 69.9534C71.9879 69.5901 71.5402 69.0818 71.2172 68.4285C70.8979 67.7752 70.7383 67.0118 70.7383 66.1384C70.7383 65.2575 70.8979 64.4887 71.2172 63.8317C71.5402 63.1748 71.9879 62.6646 72.5605 62.3013C73.1367 61.9379 73.8065 61.7563 74.5699 61.7563C75.3332 61.7563 76.0012 61.9379 76.5737 62.3013C77.1499 62.6646 77.5977 63.1748 77.917 63.8317C78.2399 64.4887 78.4014 65.2575 78.4014 66.1384C78.4014 67.0118 78.2399 67.7752 77.917 68.4285C77.5977 69.0818 77.1499 69.5901 76.5737 69.9534C76.0012 70.3168 75.3332 70.4984 74.5699 70.4984ZM74.5699 69.3313C75.1497 69.3313 75.6268 69.1827 76.0012 68.8854C76.3755 68.5881 76.6526 68.1973 76.8325 67.7128C77.0123 67.2284 77.1022 66.7036 77.1022 66.1384C77.1022 65.5732 77.0123 65.0465 76.8325 64.5584C76.6526 64.0703 76.3755 63.6757 76.0012 63.3748C75.6268 63.0738 75.1497 62.9234 74.5699 62.9234C73.99 62.9234 73.5129 63.0738 73.1385 63.3748C72.7642 63.6757 72.4871 64.0703 72.3072 64.5584C72.1274 65.0465 72.0375 65.5732 72.0375 66.1384C72.0375 66.7036 72.1274 67.2284 72.3072 67.7128C72.4871 68.1973 72.7642 68.5881 73.1385 68.8854C73.5129 69.1827 73.99 69.3313 74.5699 69.3313ZM80.5608 70.3223V59.0478H81.86V63.2096H81.9701C82.0656 63.0628 82.1977 62.8757 82.3665 62.6481C82.539 62.4169 82.7849 62.2114 83.1042 62.0315C83.4272 61.848 83.8639 61.7563 84.4144 61.7563C85.1264 61.7563 85.754 61.9343 86.2972 62.2903C86.8403 62.6463 87.2642 63.1509 87.5688 63.8042C87.8735 64.4575 88.0258 65.2282 88.0258 66.1163C88.0258 67.0118 87.8735 67.7881 87.5688 68.445C87.2642 69.0983 86.8422 69.6048 86.3027 69.9644C85.7632 70.3204 85.1411 70.4984 84.4364 70.4984C83.8933 70.4984 83.4583 70.4085 83.1317 70.2287C82.8051 70.0452 82.5537 69.8378 82.3775 69.6066C82.2013 69.3717 82.0656 69.1772 81.9701 69.0231H81.816V70.3223H80.5608ZM81.838 66.0943C81.838 66.7329 81.9316 67.2963 82.1188 67.7844C82.3059 68.2689 82.5794 68.6487 82.939 68.924C83.2987 69.1955 83.7391 69.3313 84.2603 69.3313C84.8034 69.3313 85.2567 69.1882 85.62 68.9019C85.987 68.612 86.2623 68.223 86.4458 67.7349C86.633 67.2431 86.7266 66.6962 86.7266 66.0943C86.7266 65.4998 86.6348 64.9639 86.4513 64.4868C86.2715 64.006 85.9981 63.6262 85.631 63.3473C85.2677 63.0647 84.8108 62.9234 84.2603 62.9234C83.7318 62.9234 83.2877 63.0573 82.928 63.3252C82.5684 63.5895 82.2968 63.9602 82.1133 64.4373C81.9298 64.9107 81.838 65.4631 81.838 66.0943ZM90.0131 70.3223V61.8664H91.3123V70.3223H90.0131ZM90.6737 60.4571C90.4205 60.4571 90.2021 60.3708 90.0186 60.1983C89.8388 60.0258 89.7489 59.8185 89.7489 59.5762C89.7489 59.334 89.8388 59.1267 90.0186 58.9542C90.2021 58.7817 90.4205 58.6954 90.6737 58.6954C90.927 58.6954 91.1435 58.7817 91.3234 58.9542C91.5069 59.1267 91.5986 59.334 91.5986 59.5762C91.5986 59.8185 91.5069 60.0258 91.3234 60.1983C91.1435 60.3708 90.927 60.4571 90.6737 60.4571ZM94.9911 59.0478V70.3223H93.6919V59.0478H94.9911ZM100.916 70.4984C100.101 70.4984 99.3985 70.3186 98.8076 69.9589C98.2204 69.5956 97.7671 69.0891 97.4478 68.4395C97.1322 67.7862 96.9744 67.0265 96.9744 66.1604C96.9744 65.2942 97.1322 64.5309 97.4478 63.8702C97.7671 63.206 98.2112 62.6885 98.7801 62.3178C99.3526 61.9435 100.021 61.7563 100.784 61.7563C101.224 61.7563 101.659 61.8297 102.089 61.9765C102.518 62.1233 102.909 62.3618 103.261 62.6922C103.614 63.0188 103.894 63.4519 104.104 63.9914C104.313 64.5309 104.417 65.1952 104.417 65.9842V66.5347H97.8992V65.4117H103.096C103.096 64.9346 103.001 64.5088 102.81 64.1345C102.623 63.7601 102.355 63.4647 102.006 63.2482C101.661 63.0316 101.254 62.9234 100.784 62.9234C100.266 62.9234 99.8187 63.0518 99.4407 63.3087C99.0663 63.562 98.7782 63.8923 98.5764 64.2997C98.3745 64.707 98.2736 65.1438 98.2736 65.6099V66.3586C98.2736 66.9972 98.3837 67.5385 98.6039 67.9826C98.8278 68.423 99.1379 68.7588 99.5343 68.99C99.9306 69.2176 100.391 69.3313 100.916 69.3313C101.257 69.3313 101.566 69.2836 101.841 69.1882C102.12 69.0891 102.36 68.9423 102.562 68.7478C102.764 68.5496 102.92 68.3037 103.03 68.0101L104.285 68.3624C104.153 68.7882 103.931 69.1625 103.619 69.4855C103.307 69.8048 102.922 70.0543 102.463 70.2342C102.004 70.4103 101.489 70.4984 100.916 70.4984Z" fill="#F2F2F2"></path></svg>