<svg width="198" height="124" viewBox="0 0 198 124" fill="none" xmlns="http://www.w3.org/2000/svg">
<path d="M163.878 45.2898L163.652 56.0014L144.926 51.7313L163.878 45.2898Z" fill="#FF7F4E"/>
<path d="M197.267 0L144.586 15.9116L144.931 51.7892L198 34.8339L197.267 0Z" fill="#FF966E"/>
<g filter="url(#filter0_d_12173_17912)">
<path d="M151.528 36.5849L150.313 25.5377L155.566 24.0697C156.917 23.692 157.96 23.6717 158.694 24.0089C159.438 24.3432 159.857 24.9418 159.952 25.8045C160.016 26.3832 159.933 26.9268 159.704 27.4354C159.474 27.9335 159.131 28.3656 158.675 28.7315C158.219 29.0975 157.679 29.3678 157.055 29.5423L157.275 28.8137C157.951 28.6248 158.563 28.5732 159.111 28.6587C159.657 28.7337 160.098 28.9521 160.433 29.3138C160.779 29.6727 160.987 30.1731 161.058 30.8149C161.162 31.7618 160.88 32.6051 160.212 33.3448C159.543 34.0741 158.502 34.6361 157.089 35.031L151.528 36.5849ZM153.789 33.9684L156.692 33.1572C157.338 32.9769 157.812 32.7358 158.117 32.4338C158.43 32.1184 158.561 31.724 158.509 31.2505C158.458 30.7876 158.252 30.4929 157.889 30.3664C157.536 30.2265 157.037 30.2467 156.392 30.427L153.305 31.2897L153.1 29.4275L155.757 28.6849C156.361 28.5161 156.81 28.2821 157.105 27.983C157.408 27.6704 157.535 27.2932 157.487 26.8514C157.439 26.42 157.24 26.1449 156.889 26.026C156.547 25.8938 156.075 25.9121 155.47 26.0809L152.997 26.772L153.789 33.9684Z" fill="white"/>
<path d="M164.836 26.0664L170.012 24.6199L170.231 26.6084L165.055 28.0549L164.836 26.0664ZM165.521 30.56L171.373 28.9246L171.599 30.9762L163.273 33.3027L162.058 22.2556L170.183 19.9849L170.409 22.0365L164.756 23.6161L165.521 30.56Z" fill="white"/>
<path d="M175.806 29.8005L174.819 20.8366L171.378 21.7981L171.149 19.7149L180.519 17.0965L180.748 19.1797L177.307 20.1412L178.294 29.1052L175.806 29.8005Z" fill="white"/>
<path d="M181.12 28.3153L184.697 15.929L187.155 15.2422L193.178 24.9458L190.567 25.6755L185.561 17.0213L186.544 16.7466L183.67 27.6028L181.12 28.3153ZM183.256 25.2785L183.703 23.1528L189.233 21.6075L190.122 23.3598L183.256 25.2785Z" fill="white"/>
</g>
<path d="M17.3308 75.15C17.28 76.0245 17.4047 76.9002 17.6979 77.7269C17.8272 77.9966 18.0152 78.2347 18.2484 78.4244C18.4816 78.6141 18.7544 78.7506 19.0471 78.8242C20.0595 79.0737 21.0991 79.1987 22.1425 79.1966V80.1764C20.4956 80.0784 18.1741 80.0392 15.1383 80.0392C12.4101 80.0392 10.3862 80.0392 9.04688 80.1764V79.1966C9.89466 79.2001 10.7379 79.0746 11.5469 78.8242C11.8013 78.7353 12.0318 78.5902 12.2209 78.4C12.41 78.2099 12.5527 77.9797 12.6382 77.7269C12.8717 76.8884 12.9688 76.0186 12.9259 75.15V51.8212C12.969 50.9559 12.8718 50.0893 12.6382 49.2542C12.554 48.9996 12.4119 48.7674 12.2227 48.5755C12.0335 48.3836 11.8024 48.237 11.5469 48.147C10.7372 47.9011 9.89407 47.7788 9.04688 47.7845V46.8047C10.3697 46.9027 12.3075 46.9517 14.8605 46.9517C16.1006 46.9517 17.4697 46.9517 18.9678 46.9517H22.0433C24.212 46.8926 26.3689 47.2866 28.3728 48.1078C29.9667 48.7794 31.3162 49.9139 32.2419 51.3607C33.1302 52.8413 33.5772 54.5393 33.5316 56.2597C33.5312 57.9779 33.1342 59.6734 32.3709 61.2174C31.4968 62.917 30.1103 64.3069 28.4025 65.1954C26.1156 66.3455 23.5653 66.8891 21.0016 66.7728H17.3308V75.15ZM26.9739 63.2652C28.2638 61.3029 28.8923 58.988 28.7696 56.6516C28.823 54.9548 28.5538 53.2632 27.9759 51.6644C27.5066 50.4257 26.6158 49.3866 25.456 48.7251C24.035 48.0158 22.4534 47.6784 20.8627 47.7453C20.1034 47.7054 19.3439 47.8187 18.6305 48.0784C18.3875 48.19 18.1725 48.3532 18.001 48.5565C17.8295 48.7598 17.7056 48.998 17.6384 49.2542C17.4204 50.0787 17.3268 50.9305 17.3606 51.782V65.6951H20.575C23.657 65.7212 25.79 64.9112 26.9739 63.2652Z" fill="#231F20"/>
<path d="M66.4507 48.147C66.1978 48.2376 65.9695 48.3846 65.7837 48.5767C65.5978 48.7687 65.4594 49.0006 65.3792 49.2542C65.1456 50.0893 65.0485 50.9559 65.0915 51.8212V75.15C65.0486 76.0186 65.1457 76.8884 65.3792 77.7269C65.4614 77.9783 65.6006 78.2079 65.7863 78.3981C65.972 78.5883 66.1992 78.734 66.4507 78.8242C67.2597 79.0746 68.1029 79.2001 68.9507 79.1966V80.1764C67.6313 80.0784 65.5975 80.0392 62.8593 80.0392C60.3096 80.0392 58.2957 80.0392 56.8076 80.1764V79.1966C57.6553 79.2001 58.4986 79.0746 59.3076 78.8242C59.5591 78.734 59.7863 78.5883 59.972 78.3981C60.1577 78.2079 60.2969 77.9783 60.3791 77.7269C60.6125 76.8884 60.7097 76.0186 60.6668 75.15V63.853H45.1803V75.15C45.1396 76.0192 45.2401 76.8891 45.4779 77.7269C45.5601 77.9783 45.6993 78.2079 45.885 78.3981C46.0707 78.5883 46.2979 78.734 46.5494 78.8242C47.3551 79.0739 48.195 79.1995 49.0395 79.1966V80.1764C47.5911 80.0784 45.5672 80.0392 42.9977 80.0392C40.2694 80.0392 38.2356 80.0392 36.9062 80.1764V79.1966C37.754 79.2001 38.5973 79.0746 39.4063 78.8242C39.6559 78.7309 39.8815 78.5841 40.0668 78.3943C40.252 78.2046 40.3924 77.9766 40.4778 77.7269C40.7061 76.8874 40.8032 76.0184 40.7655 75.15V51.8212C40.8034 50.956 40.7064 50.0902 40.4778 49.2542C40.3964 49.0043 40.2598 48.7753 40.078 48.5838C39.8961 48.3924 39.6735 48.2432 39.4262 48.147C38.6164 47.9011 37.7733 47.7788 36.9261 47.7845V46.8047C38.2489 46.9027 40.2794 46.9517 43.0175 46.9517C45.587 46.9517 47.6109 46.9517 49.0594 46.8047V47.7845C48.2155 47.7795 47.3757 47.9017 46.5692 48.147C46.3126 48.235 46.0804 48.3809 45.891 48.5731C45.7015 48.7653 45.5601 48.9985 45.4779 49.2542C45.24 50.0886 45.1395 50.9553 45.1803 51.8212V62.9124H60.6668V51.8212C60.7098 50.9559 60.6127 50.0893 60.3791 49.2542C60.2949 48.9964 60.1505 48.7619 59.9574 48.5695C59.7644 48.3772 59.5282 48.2324 59.2679 48.147C58.4582 47.9011 57.6151 47.7788 56.7679 47.7845V46.8047C58.256 46.9027 60.2733 46.9517 62.8196 46.9517C65.5479 46.9517 67.5717 46.9517 68.9111 46.8047V47.7845C68.0772 47.7828 67.2478 47.905 66.4507 48.147Z" fill="#231F20"/>
<path d="M82.5824 48.147C82.3318 48.2395 82.1058 48.3873 81.9218 48.5792C81.7379 48.7711 81.6007 49.0019 81.5209 49.2542C81.2829 50.0886 81.1824 50.9553 81.2233 51.8212V75.15C81.1826 76.0192 81.2831 76.8891 81.5209 77.7269C81.6027 77.977 81.7406 78.2056 81.9245 78.3956C82.1083 78.5856 82.3332 78.7321 82.5824 78.8242C83.3918 79.0728 84.2348 79.1983 85.0825 79.1966V80.1764C83.6241 80.0784 81.6102 80.0392 79.0406 80.0392C76.3124 80.0392 74.2786 80.0392 72.9492 80.1764V79.1966C73.7969 79.1983 74.6399 79.0728 75.4493 78.8242C75.6989 78.7309 75.9245 78.5841 76.1097 78.3943C76.295 78.2046 76.4354 77.9766 76.5207 77.7269C76.7491 76.8874 76.8461 76.0184 76.8084 75.15V51.8212C76.8464 50.956 76.7493 50.0902 76.5207 49.2542C76.4373 49.0023 76.2977 48.7721 76.1123 48.5805C75.9269 48.3889 75.7003 48.2407 75.4493 48.147C74.6391 47.9027 73.7963 47.7805 72.9492 47.7845V46.8047C74.2687 46.9027 76.2926 46.9517 79.0406 46.9517C81.6069 46.9517 83.6208 46.9027 85.0825 46.8047V47.7845C84.2354 47.7805 83.3926 47.9027 82.5824 48.147Z" fill="#231F20"/>
<path d="M98.7234 48.147C98.4723 48.2407 98.2458 48.3889 98.0604 48.5805C97.8749 48.7721 97.7354 49.0023 97.6519 49.2542C97.4233 50.0902 97.3263 50.956 97.3642 51.8212V75.15C97.3256 76.0152 97.4227 76.8811 97.6519 77.7171C97.7366 77.9638 97.8771 78.1882 98.0628 78.3732C98.2484 78.5583 98.4743 78.6991 98.7234 78.7851C99.5377 79.0017 100.381 79.0942 101.223 79.0594H104.706C106.26 79.1472 107.812 78.8614 109.23 78.2266C110.28 77.6538 111.077 76.7137 111.462 75.5909C112.027 73.8618 112.384 72.0727 112.523 70.2609H113.615C113.525 71.2407 113.476 72.5242 113.476 74.1213C113.476 75.8979 113.585 77.9032 113.803 80.1372C111.65 80.0392 108.009 80 102.89 80C96.7921 80 92.1855 80.0457 89.0703 80.1372V79.1574C89.9181 79.161 90.7614 79.0354 91.5704 78.7851C91.8218 78.6948 92.0491 78.5491 92.2347 78.3589C92.4204 78.1687 92.5597 77.9391 92.6418 77.6877C92.8753 76.8492 92.9724 75.9794 92.9295 75.1108V51.8212C92.9725 50.9559 92.8754 50.0893 92.6418 49.2542C92.5617 49.0006 92.4233 48.7687 92.2374 48.5767C92.0515 48.3846 91.8233 48.2376 91.5704 48.147C90.7606 47.9011 89.9175 47.7788 89.0703 47.7845V46.8047C90.3931 46.9027 92.4236 46.9517 95.1617 46.9517C97.7412 46.9517 99.7584 46.9027 101.213 46.8047V47.7845C100.37 47.7798 99.53 47.902 98.7234 48.147Z" fill="#231F20"/>
<path d="M126.729 48.147C126.476 48.2376 126.248 48.3846 126.062 48.5767C125.876 48.7687 125.738 49.0006 125.658 49.2542C125.424 50.0893 125.327 50.9559 125.37 51.8212V75.15C125.327 76.0186 125.424 76.8884 125.658 77.7269C125.74 77.9783 125.879 78.2079 126.065 78.3981C126.25 78.5883 126.478 78.734 126.729 78.8242C127.538 79.0746 128.381 79.2001 129.229 79.1966V80.1764C127.771 80.0784 125.757 80.0392 123.177 80.0392C120.449 80.0392 118.425 80.0392 117.086 80.1764V79.1966C117.934 79.2001 118.777 79.0746 119.586 78.8242C119.837 78.7328 120.063 78.5866 120.249 78.3965C120.434 78.2065 120.574 77.9776 120.657 77.7269C120.891 76.8884 120.988 76.0186 120.945 75.15V51.8212C120.988 50.9559 120.891 50.0893 120.657 49.2542C120.575 49.0016 120.436 48.7708 120.251 48.579C120.065 48.3872 119.838 48.2395 119.586 48.147C118.776 47.9011 117.933 47.7788 117.086 47.7845V46.8047C118.409 46.9027 120.439 46.9517 123.177 46.9517C125.757 46.9517 127.774 46.9027 129.229 46.8047V47.7845C128.382 47.7788 127.539 47.9011 126.729 48.147Z" fill="#231F20"/>
<path d="M161.533 79.1972V80.177C160.234 80.079 158.557 80.0398 156.424 80.0398C153.706 80.0398 151.682 80.0398 150.333 80.177V79.1972C151.216 79.2094 152.094 79.0599 152.922 78.7563C153.172 78.6446 153.381 78.4597 153.522 78.2266C153.662 77.9935 153.726 77.7235 153.706 77.4532C153.652 76.6909 153.46 75.9443 153.14 75.2487L150.164 67.5279H138.725L136.741 72.515C136.179 73.7328 135.843 75.0403 135.749 76.3754C135.709 76.7848 135.779 77.1974 135.954 77.571C136.128 77.9446 136.4 78.2657 136.741 78.5016C137.701 79.0042 138.78 79.2444 139.866 79.1972V80.177C138.06 80.079 136.225 80.0398 134.38 80.0398C133.194 80.0269 132.009 80.0726 130.828 80.177V79.1972C132.409 78.8445 133.656 77.4826 134.568 75.1115L145.868 46.6094H146.632L158.24 76.1893C159.013 78.1292 160.115 79.1384 161.533 79.1972ZM144.588 52.5567L139.122 66.5873H149.916L144.588 52.5567Z" fill="#231F20"/>
<path d="M8.17498 102.759C8.04601 102.759 7.97656 102.691 7.97656 102.534C8.06241 101.788 8.34649 101.078 8.79999 100.476C9.45812 99.5229 10.297 98.7044 11.2703 98.0661C12.8295 96.9679 14.6927 96.3694 16.6077 96.3514C18.1576 96.391 19.6899 96.6858 21.1416 97.2234L22.3519 97.6349C23.0748 97.9159 23.8383 98.0812 24.6139 98.1248C25.063 98.1364 25.512 98.1003 25.9532 98.0171C26.3289 97.9402 26.6973 97.832 27.0544 97.6937C27.7974 97.4375 28.4916 97.0599 29.1081 96.5768C29.3585 96.3331 29.6424 96.1253 29.9513 95.9595C30.0208 95.9595 30.0505 95.9595 30.0505 96.0477C30.0505 96.1359 29.872 96.3318 29.5247 96.6356C29.1264 96.9966 28.6983 97.3244 28.2449 97.6153C27.76 97.9232 27.2488 98.1888 26.7171 98.409C25.9334 98.7331 25.0961 98.9124 24.2468 98.9381C23.5127 98.9381 22.967 98.9381 22.6 98.8793C22.2329 98.8205 21.8757 98.7911 21.5087 98.7225C20.8386 98.5833 20.1764 98.41 19.5245 98.2032L18.0959 97.7623C17.8379 97.6937 17.58 97.6349 17.3419 97.5958C16.8238 97.5108 16.2995 97.4682 15.7744 97.4684C15.1824 97.4699 14.5928 97.5423 14.0184 97.6839C13.4116 97.8222 12.8201 98.0191 12.2525 98.2718C10.7485 98.8801 9.50174 99.9801 8.72063 101.388C8.56471 101.651 8.46983 101.946 8.44284 102.25C8.48252 102.593 8.38332 102.759 8.17498 102.759ZM31.6081 95.2051C31.8102 94.9734 32.094 94.8263 32.4018 94.7936C32.63 94.7936 32.749 94.7936 32.749 94.9209C32.7497 94.9588 32.7387 94.996 32.7174 95.0275C32.6961 95.059 32.6656 95.0833 32.63 95.0973L32.3423 95.2541L31.9554 95.5186C31.7438 95.669 31.5477 95.8397 31.37 96.0281C30.8442 96.5964 30.4474 97.0079 30.2093 97.3116C29.5049 98.1836 28.9394 98.8989 28.5128 99.4769L25.2687 103.886C23.0137 107.026 20.4444 109.935 17.5998 112.567L15.0601 114.791L16.1712 114.144C17.0162 113.667 17.8252 113.13 18.5919 112.538L20.5761 110.843L22.7785 108.834L29.0585 102.838C31.4692 100.643 33.0963 99.2124 33.9197 98.5266C35.4674 97.2724 36.4594 96.4984 36.896 96.2044C37.6157 95.5837 38.4084 95.0508 39.2571 94.6172C39.4159 94.6172 39.4952 94.6858 39.4952 94.8131C39.4952 94.9405 39.396 94.9895 39.2075 95.0875L38.6718 95.3716C37.7552 95.8494 36.9871 96.5639 36.4495 97.439C35.8344 98.36 35.2689 99.2712 34.7332 100.182L33.0665 103.004L31.2708 105.944C30.6656 106.923 30.1795 107.629 29.8025 108.129L26.231 112.724L29.6438 109.236L32.7887 106.179L37.4912 101.74C40.9966 98.4743 43.8704 96.4396 46.1125 95.6362C46.9147 95.3523 47.7603 95.2065 48.6125 95.2051C49.3571 95.1812 50.0943 95.3573 50.7455 95.7146C51.0157 95.8587 51.2396 96.0745 51.3921 96.3376C51.5447 96.6008 51.6196 96.9008 51.6086 97.2038C51.6063 97.606 51.5037 98.0014 51.3099 98.3551C51.1161 98.7089 50.8371 99.01 50.4975 99.232C49.7517 99.7644 48.8477 100.037 47.928 100.006C47.4224 100.019 46.9203 99.9185 46.4597 99.7121C45.7256 99.3528 45.3585 99.0262 45.3585 98.7323C45.3585 98.4286 45.4775 98.2718 45.7156 98.2718C45.7665 98.2647 45.8184 98.2699 45.8668 98.287C45.9151 98.3041 45.9586 98.3325 45.9934 98.3698C46.0525 98.4863 46.0895 98.6125 46.1025 98.7421C46.1371 98.9209 46.2315 99.083 46.3704 99.2026C46.5197 99.3274 46.6869 99.4298 46.8665 99.5063C47.1762 99.653 47.515 99.73 47.8585 99.7317C48.1955 99.7308 48.5302 99.6779 48.8506 99.5749C49.2074 99.4785 49.5435 99.3192 49.8427 99.1046C50.1507 98.9015 50.4026 98.6258 50.5757 98.3026C50.7489 97.9793 50.838 97.6185 50.8348 97.2528C50.8403 96.9927 50.7692 96.7366 50.63 96.5157C50.4909 96.2948 50.2898 96.1186 50.0511 96.0085C49.584 95.7761 49.0659 95.6616 48.5431 95.6754C48.0266 95.6694 47.5111 95.7187 47.0054 95.8223C46.5021 95.931 46.0129 96.0953 45.547 96.3122C44.9524 96.5803 44.3788 96.8914 43.8307 97.243C43.1178 97.6837 42.429 98.1612 41.7671 98.6735C40.2166 99.8312 38.7389 101.081 37.3424 102.416L32.1439 107.354L29.6438 109.794L26.5286 112.949C25.4578 114.174 24.1488 115.173 22.6793 115.888C22.4915 115.978 22.2906 116.037 22.0841 116.065C21.8956 116.065 21.8063 115.986 21.8063 115.83C21.8063 115.673 21.9353 115.614 22.1932 115.536C22.4511 115.457 22.6793 115.359 22.8579 115.281C23.0395 115.197 23.2123 115.095 23.3738 114.977C23.5569 114.829 23.7262 114.665 23.8798 114.487C24.0484 114.282 24.227 114.027 24.4353 113.713C24.6437 113.4 24.8718 113.018 25.1496 112.557C26.608 110.039 27.5902 108.373 28.1259 107.58C29.2668 105.846 29.991 104.778 30.2886 104.366L35.6955 97.7035L33.9395 99.0262C33.3046 99.5161 32.6994 100.006 32.124 100.574L25.1794 107.247L21.5682 110.509C19.5801 112.414 17.3207 114.022 14.8617 115.281L14.3061 115.526C13.8719 115.77 13.3988 115.939 12.9072 116.026C12.689 116.026 12.5799 115.957 12.5799 115.81C12.5799 115.663 12.7981 115.575 13.2346 115.448C13.7587 115.395 14.2487 115.166 14.6236 114.801C15.4196 114.03 16.1282 113.176 16.7367 112.253L19.4947 108.334L20.6951 106.776C21.9154 105.228 22.7984 104.151 23.3539 103.533C24.6635 102.083 25.6854 101.005 26.3997 100.3L31.6081 95.2051Z" fill="#231F20"/>
<path d="M40.1109 114.216C39.4886 114.614 38.8231 114.943 38.1267 115.195C37.4903 115.426 36.8201 115.552 36.1425 115.568C35.6485 115.587 35.155 115.52 34.6841 115.372C34.372 115.256 34.0905 115.072 33.8607 114.833C32.9579 113.853 32.9579 112.413 33.8607 110.512C34.2887 109.628 34.9006 108.844 35.6564 108.21C36.3117 107.624 37.0226 107.102 37.7794 106.652C38.7855 106.045 39.9344 105.707 41.1129 105.672C42.105 105.672 42.6704 105.995 42.7201 106.652C42.7895 107.68 41.5295 108.788 38.9402 109.993C37.7751 110.52 36.5791 110.978 35.3588 111.364C34.8757 112.024 34.5779 112.798 34.4956 113.608C34.4739 113.835 34.5037 114.063 34.5826 114.276C34.6615 114.49 34.7877 114.683 34.952 114.843C35.3437 115.111 35.8161 115.238 36.2913 115.205C36.9433 115.191 37.5878 115.065 38.1961 114.833C38.8705 114.58 39.513 114.252 40.1109 113.853C40.6894 113.487 41.2339 113.07 41.7379 112.609C42.2273 112.158 42.6539 111.727 43.0177 111.315C43.3947 110.904 43.7022 110.551 43.9403 110.247C44.0883 110.047 44.2508 109.857 44.4264 109.679L44.7241 109.924C44.5209 110.127 44.3319 110.343 44.1586 110.571C43.9006 110.894 43.5732 111.266 43.1665 111.678C42.7597 112.09 42.3331 112.54 41.8173 113.001C41.2845 113.453 40.7136 113.859 40.1109 114.216ZM35.6564 110.777C38.5797 109.764 40.4647 108.755 41.3113 107.749C41.5695 107.485 41.7212 107.136 41.7379 106.769C41.7379 106.23 41.4799 105.966 40.974 105.966C40.091 105.966 38.9898 106.73 37.6406 108.268C36.9311 109.049 36.2685 109.87 35.6564 110.728V110.777Z" fill="#231F20"/>
<path d="M60.3105 115.438C59.3184 115.438 58.8521 115.144 58.8521 114.547C58.9394 113.863 59.2332 113.221 59.6954 112.705L60.6081 111.558L60.4692 111.5C59.2942 113.117 57.701 114.392 55.856 115.193C55.5386 115.314 55.2036 115.384 54.8639 115.399C53.6734 115.399 53.0781 114.772 53.0781 113.518C53.1211 111.94 53.7578 110.434 54.8639 109.295C56.1938 107.553 58.0652 106.29 60.1914 105.699C60.6378 105.6 61.0931 105.544 61.5506 105.533C61.8508 105.524 62.1508 105.554 62.4434 105.621C62.646 105.661 62.8404 105.734 63.0189 105.836C63.1701 105.916 63.298 106.032 63.3902 106.175C63.4823 106.317 63.5355 106.481 63.5447 106.65C63.5468 106.962 63.4861 107.272 63.3661 107.561L64.7947 105.827C65.0294 105.898 65.2734 105.934 65.5189 105.934C65.9329 105.945 66.3472 105.928 66.759 105.885L61.8581 111.705C60.6974 113.048 60.112 113.988 60.112 114.537C60.112 114.841 60.3005 114.997 60.6676 114.997C61.1108 114.981 61.5446 114.867 61.9375 114.664C62.4423 114.434 62.9211 114.151 63.3661 113.822C63.8543 113.467 64.3183 113.081 64.755 112.665C65.2114 112.254 65.6281 111.842 66.005 111.441C66.382 111.039 66.7293 110.657 66.9971 110.314L67.6916 109.54L67.9992 109.785L67.2551 110.618C64.4574 113.831 62.1425 115.438 60.3105 115.438ZM56.2925 110.294C54.9234 111.927 54.2389 113.27 54.2389 114.321C54.2389 114.792 54.4571 115.037 54.8937 115.037C56.3123 115.037 58.3461 113.488 61.0148 110.402L62.245 108.923C62.6921 108.371 62.9923 107.718 63.1181 107.022C63.134 106.889 63.1193 106.755 63.0751 106.629C63.0309 106.503 62.9583 106.389 62.8628 106.294C62.7673 106.2 62.6514 106.128 62.5237 106.084C62.3961 106.041 62.2601 106.026 62.126 106.042C61.2133 106.042 59.8839 106.816 58.1576 108.364C57.4917 108.964 56.8686 109.609 56.2925 110.294Z" fill="#231F20"/>
<path d="M70.0902 114.29C70.0902 114.731 70.2787 114.956 70.6557 114.956C71.0999 114.939 71.5343 114.822 71.9256 114.613C72.4206 114.361 72.892 114.066 73.3344 113.731C73.8285 113.365 74.3021 112.973 74.7531 112.556L76.013 111.282C76.3999 110.89 76.7372 110.537 77.0051 110.224L77.6003 109.558L77.898 109.802C77.6362 110.044 77.3878 110.299 77.1539 110.567L76.1321 111.742C73.7709 114.212 71.7371 115.446 70.0307 115.446C69.5541 115.466 69.0848 115.325 68.7013 115.044C68.5407 114.914 68.4125 114.749 68.3265 114.562C68.2405 114.376 68.199 114.172 68.2053 113.967C68.2053 112.536 70.3085 110.439 74.505 107.647C73.0533 107.481 71.6254 107.152 70.249 106.667C69.4795 108.142 68.4745 109.485 67.2727 110.645C67.1015 110.839 66.9084 111.013 66.6973 111.164L66.5584 111.223C66.5584 111.223 66.5584 111.223 66.5584 111.145C66.5482 111.096 66.5482 111.046 66.5584 110.998C66.5725 110.959 66.5926 110.923 66.6179 110.89C67.0644 110.381 67.491 109.91 67.8779 109.43C68.6429 108.523 69.308 107.537 69.862 106.491C69.7196 106.419 69.5935 106.32 69.4911 106.198C69.3888 106.077 69.3125 105.937 69.2668 105.785C69.2172 105.556 69.2172 105.319 69.2668 105.09C69.3181 104.884 69.4053 104.688 69.5247 104.512C69.6095 104.352 69.7343 104.217 69.8873 104.12C70.0402 104.022 70.216 103.964 70.3978 103.953C71.003 103.953 71.3105 104.169 71.3105 104.61C71.3174 104.804 71.2729 104.996 71.1815 105.168L70.9236 105.619C70.7471 105.831 70.6522 106.098 70.6557 106.373C70.6557 106.55 71.0327 106.706 71.7669 106.863L73.3443 107.177C73.878 107.283 74.4182 107.355 74.9614 107.392C75.2293 107.392 75.3681 107.471 75.3681 107.608C75.3681 107.745 75.2094 107.862 74.8919 108.107C74.5745 108.352 74.2372 108.666 73.8999 109.019C73.5625 109.371 73.1459 109.744 72.7887 110.126C72.4316 110.508 72.0943 110.91 71.7966 111.311C71.4932 111.684 71.2117 112.073 70.9533 112.477C70.5115 112.997 70.2141 113.622 70.0902 114.29Z" fill="#231F20"/>
<path d="M83.1249 114.216C82.5027 114.614 81.8372 114.943 81.1408 115.195C80.4887 115.431 79.8012 115.557 79.107 115.568C78.613 115.587 78.1195 115.52 77.6486 115.372C77.3365 115.256 77.055 115.072 76.8252 114.833C75.9124 113.853 75.9124 112.413 76.8252 110.512C77.2532 109.628 77.865 108.844 78.6208 108.21C79.2761 107.624 79.9871 107.102 80.7439 106.652C81.75 106.045 82.8989 105.707 84.0773 105.672C85.0694 105.672 85.6349 105.995 85.6845 106.652C85.754 107.68 84.494 108.788 81.9047 109.993C80.7396 110.52 79.5436 110.978 78.3232 111.364C77.8402 112.024 77.5424 112.798 77.4601 113.608C77.4384 113.835 77.4681 114.063 77.5471 114.276C77.626 114.49 77.7522 114.683 77.9165 114.843C78.3081 115.111 78.7806 115.238 79.2558 115.205C79.9078 115.191 80.5523 115.065 81.1606 114.833C81.835 114.58 82.4775 114.252 83.0753 113.853C83.6539 113.487 84.1984 113.07 84.7024 112.609C85.1918 112.158 85.6184 111.727 85.9821 111.315C86.3591 110.904 86.6667 110.551 86.9048 110.247C87.0528 110.047 87.2153 109.857 87.3909 109.679L87.6885 109.924C87.4825 110.124 87.2934 110.34 87.1231 110.571C86.8651 110.894 86.5377 111.266 86.131 111.678C85.7242 112.09 85.2877 112.54 84.7817 113.001C84.2648 113.451 83.7106 113.857 83.1249 114.216ZM78.6705 110.777C81.5938 109.764 83.4788 108.755 84.3254 107.749C84.5791 107.482 84.7301 107.135 84.752 106.769C84.752 106.23 84.494 105.966 83.9881 105.966C83.1051 105.966 82.0039 106.73 80.6546 108.268C79.9452 109.049 79.2826 109.87 78.6705 110.728V110.777Z" fill="#231F20"/>
<path d="M108.337 107.047C104.124 112.645 100.453 115.441 97.325 115.434C95.7972 115.434 94.8348 115.033 94.4182 114.229C94.3023 114.008 94.2411 113.763 94.2396 113.514C94.2299 113.307 94.2743 113.101 94.3686 112.916C94.4537 112.77 94.5685 112.644 94.7059 112.544C94.9696 112.361 95.2866 112.268 95.6087 112.279C95.7761 112.286 95.938 112.341 96.075 112.436C96.1587 112.482 96.2273 112.551 96.273 112.634C96.3187 112.718 96.3394 112.812 96.3329 112.907C96.3349 113.008 96.3136 113.108 96.2706 113.199C96.2276 113.291 96.1641 113.372 96.0849 113.436C95.9092 113.585 95.6818 113.663 95.4499 113.651C95.2333 113.658 95.0184 113.61 94.8249 113.514V113.583C94.8246 113.795 94.8813 114.005 94.9894 114.189C95.0974 114.373 95.2529 114.525 95.44 114.631C95.8791 114.904 96.3896 115.044 96.9083 115.033C97.3846 115.043 97.8604 115 98.327 114.905C98.7386 114.811 99.1333 114.656 99.4977 114.445C99.961 114.182 100.394 113.87 100.787 113.514C101.331 113.026 101.845 112.506 102.325 111.956C102.891 111.319 103.535 110.545 104.24 109.634L106.67 106.42C106.435 106.298 106.236 106.117 106.094 105.895C105.951 105.673 105.869 105.419 105.857 105.156C105.86 104.948 105.912 104.744 106.011 104.56C106.109 104.376 106.25 104.218 106.422 104.098C106.695 103.85 107.045 103.702 107.415 103.677C107.762 103.677 107.93 103.677 107.93 103.824C107.93 103.971 107.881 103.912 107.762 103.932C107.378 103.985 107.025 104.173 106.77 104.461C106.556 104.696 106.433 104.998 106.422 105.313C106.429 105.47 106.477 105.623 106.56 105.756C106.643 105.89 106.76 106.001 106.899 106.077L107.107 105.803C108.325 104.146 109.65 102.568 111.075 101.08C112.554 99.5473 114.182 98.1623 115.937 96.9458L116.532 96.5636C114.92 95.7904 113.13 95.4524 111.343 95.5838C108.997 95.5802 106.674 96.0365 104.508 96.9262C102.635 97.6328 100.941 98.7365 99.5473 100.159C98.9925 100.658 98.5456 101.262 98.2336 101.936C97.9215 102.609 97.7508 103.338 97.7318 104.079C97.7187 104.385 97.7741 104.69 97.8942 104.973C98.0142 105.256 98.1958 105.509 98.4262 105.715C98.8025 106.028 99.2834 106.193 99.7755 106.175C100.371 106.163 100.954 106.005 101.472 105.715C102.101 105.359 102.678 104.921 103.188 104.412C103.758 103.919 104.282 103.378 104.756 102.795C105.219 102.225 105.65 101.63 106.045 101.012C106.676 100.127 107.124 99.1282 107.365 98.0725C107.365 97.7492 107.454 97.5826 107.544 97.5826C107.633 97.5826 107.692 97.5826 107.702 97.6904C107.712 97.7982 107.702 97.9745 107.702 98.3273C107.694 98.8276 107.62 99.3248 107.484 99.8067C107.325 100.461 107.092 101.095 106.79 101.698C106.461 102.338 106.065 102.942 105.609 103.501C105.136 104.068 104.596 104.577 104.002 105.019C102.747 105.962 101.213 106.472 99.6366 106.469C99.3421 106.466 99.0512 106.406 98.7804 106.292C98.5097 106.177 98.2646 106.011 98.0591 105.803C97.8061 105.57 97.6042 105.288 97.4659 104.974C97.3277 104.661 97.2561 104.323 97.2555 103.981C97.2326 103.217 97.4103 102.461 97.7714 101.786C98.168 101.011 98.6908 100.306 99.3191 99.699C100.029 99.007 100.818 98.3987 101.67 97.8863C102.615 97.324 103.611 96.8515 104.647 96.4755C106.797 95.6448 109.084 95.2162 111.393 95.2115C113.324 95.1424 115.246 95.5006 117.018 96.2599C117.809 95.7426 118.707 95.4077 119.647 95.2801C119.826 95.2801 119.925 95.2801 119.925 95.3977C119.932 95.4282 119.93 95.4599 119.919 95.4894C119.909 95.5188 119.89 95.5448 119.865 95.5642C119.733 95.6332 119.588 95.6733 119.439 95.6818C118.756 95.8379 118.11 96.1205 117.534 96.5146C118.237 96.8597 118.83 97.392 119.243 98.0516C119.657 98.7112 119.876 99.4718 119.875 100.248C119.84 101.505 119.355 102.71 118.506 103.648C117.563 104.755 116.375 105.633 115.034 106.215C113.611 106.868 112.059 107.203 110.49 107.194C109.769 107.221 109.047 107.172 108.337 107.047ZM108.615 106.695C109.186 106.812 109.768 106.874 110.351 106.881C110.923 106.874 111.492 106.802 112.048 106.665C112.647 106.513 113.229 106.3 113.784 106.028C114.364 105.736 114.909 105.381 115.411 104.97C115.941 104.543 116.408 104.045 116.8 103.491C117.661 102.277 118.116 100.828 118.099 99.3462C118.118 98.8824 118.027 98.4206 117.835 97.9972C117.642 97.5739 117.352 97.2005 116.988 96.9066C115.753 97.8263 114.634 98.8888 113.655 100.071C112.504 101.423 111.545 102.635 110.778 103.706L108.615 106.695Z" fill="#231F20"/>
<path d="M114.408 115.139C114.12 115.089 113.827 115.066 113.535 115.07C113.078 115.062 112.622 115.108 112.176 115.208L128.258 92.5156C128.916 92.6094 129.584 92.6094 130.242 92.5156L115.866 112.258L115.936 112.415C116.67 111.573 117.354 110.828 117.989 110.171L119.716 108.447C120.457 107.726 121.26 107.071 122.117 106.487C122.88 105.946 123.787 105.637 124.726 105.596C125.062 105.547 125.405 105.611 125.7 105.779C125.995 105.946 126.225 106.206 126.353 106.517C126.789 107.706 125.43 109.975 122.275 113.326L121.71 113.944C121.472 114.148 121.308 114.423 121.243 114.727C121.243 114.825 121.353 114.904 121.561 114.963C121.855 115.039 122.16 115.072 122.464 115.061C122.942 115.035 123.409 114.908 123.833 114.688C124.372 114.439 124.881 114.13 125.351 113.767C125.841 113.383 126.302 112.964 126.73 112.513C127.176 112.062 127.583 111.641 127.93 111.239C128.277 110.838 128.585 110.475 128.823 110.171C129.061 109.868 129.23 109.672 129.319 109.584L129.637 109.829C129.547 109.936 129.369 110.142 129.111 110.465C128.853 110.789 128.535 111.141 128.119 111.563C127.702 111.984 127.325 112.415 126.849 112.876C126.382 113.327 125.881 113.743 125.351 114.12C124.408 114.896 123.242 115.359 122.017 115.443C121.694 115.469 121.37 115.425 121.066 115.313C120.763 115.201 120.488 115.025 120.261 114.796C120.145 114.666 120.082 114.499 120.083 114.326C120.088 114.115 120.114 113.905 120.162 113.699C120.254 113.381 120.391 113.077 120.569 112.797C121.145 111.874 121.809 111.008 122.553 110.211C123.376 109.309 123.912 108.692 124.17 108.369C124.428 108.045 124.636 107.761 124.795 107.516C125.027 107.205 125.177 106.841 125.232 106.458C125.232 106.115 125.003 105.939 124.547 105.939C123.781 105.994 123.049 106.274 122.444 106.742C119.883 108.624 117.61 110.861 115.698 113.385L114.408 115.139Z" fill="#231F20"/>
<path d="M127.721 114.591C127.721 114.885 127.999 115.042 128.574 115.042C129.138 115.046 129.694 114.911 130.191 114.65C130.737 114.371 131.255 114.043 131.739 113.67C132.264 113.279 132.764 112.857 133.237 112.406L134.547 111.113C134.933 110.711 135.251 110.358 135.539 110.074C135.826 109.79 135.935 109.614 135.985 109.565L136.273 109.819C136.183 109.917 135.995 110.123 135.737 110.427C135.479 110.731 135.132 111.103 134.745 111.524C134.358 111.946 133.902 112.377 133.406 112.837C132.92 113.293 132.403 113.716 131.858 114.101C130.926 114.865 129.781 115.33 128.574 115.434C128.074 115.458 127.576 115.346 127.136 115.11C126.986 115.045 126.857 114.942 126.761 114.811C126.665 114.68 126.606 114.526 126.59 114.366C126.587 114.115 126.617 113.864 126.679 113.621C126.762 113.351 126.868 113.089 126.997 112.837C127.193 112.465 127.411 112.105 127.652 111.759C127.929 111.348 128.286 110.858 128.723 110.28C129.159 109.702 129.715 109.036 130.33 108.32L132.562 105.714C132.8 105.737 133.039 105.737 133.277 105.714H133.961C134.166 105.726 134.371 105.726 134.576 105.714C131.362 109.496 129.566 111.593 129.16 112.171C128.753 112.749 128.455 113.151 128.267 113.396C127.979 113.738 127.79 114.151 127.721 114.591ZM136.947 102.461C136.802 102.58 136.642 102.678 136.471 102.755C136.281 102.828 136.079 102.864 135.876 102.863C135.767 102.863 135.66 102.841 135.56 102.797C135.461 102.753 135.373 102.689 135.301 102.608C135.225 102.534 135.165 102.445 135.124 102.347C135.083 102.25 135.062 102.145 135.062 102.04C135.06 101.847 135.1 101.657 135.181 101.481C135.254 101.316 135.362 101.169 135.499 101.05C135.614 100.919 135.756 100.813 135.914 100.739C136.073 100.665 136.246 100.624 136.422 100.619C136.557 100.611 136.693 100.63 136.821 100.675C136.949 100.721 137.067 100.792 137.166 100.884C137.318 101.043 137.403 101.253 137.404 101.472C137.408 101.665 137.364 101.857 137.275 102.03C137.193 102.192 137.082 102.338 136.947 102.461Z" fill="#231F20"/>
<path d="M134.42 114.553C134.42 114.877 134.658 115.033 135.124 115.033C135.642 115.019 136.15 114.892 136.612 114.661C137.165 114.408 137.69 114.099 138.18 113.74C138.705 113.36 139.208 112.951 139.688 112.515C140.164 112.065 140.61 111.643 141.007 111.242L141.999 110.183C142.267 109.87 142.456 109.674 142.555 109.576L142.842 109.821C142.733 109.929 142.545 110.134 142.257 110.458C141.969 110.781 141.622 111.134 141.205 111.545C140.789 111.957 140.332 112.388 139.826 112.848C139.325 113.303 138.795 113.725 138.239 114.112C137.266 114.877 136.085 115.337 134.846 115.435C134.485 115.449 134.132 115.331 133.854 115.102C133.739 115.02 133.643 114.914 133.573 114.793C133.503 114.671 133.46 114.536 133.447 114.396C133.434 114.191 133.434 113.985 133.447 113.779C133.498 113.587 133.575 113.403 133.676 113.231C133.771 112.994 133.884 112.765 134.013 112.545C134.162 112.28 134.35 111.957 134.598 111.565L136.781 108.332L148.011 92.4688C148.669 92.5625 149.337 92.5625 149.995 92.4688C140.776 105.18 135.997 111.774 135.66 112.251C135.332 112.731 135.094 113.093 134.935 113.338C134.809 113.531 134.693 113.731 134.588 113.936C134.483 114.125 134.425 114.337 134.42 114.553Z" fill="#231F20"/>
<path d="M140.918 114.591C140.918 114.885 141.206 115.042 141.781 115.042C142.345 115.045 142.9 114.91 143.398 114.65C143.94 114.371 144.455 114.043 144.936 113.67C145.466 113.282 145.97 112.859 146.444 112.406L147.754 111.113C148.14 110.711 148.458 110.358 148.746 110.074L149.202 109.565L149.49 109.819C149.391 109.917 149.212 110.123 148.944 110.427C148.676 110.731 148.349 111.103 147.952 111.524C147.555 111.946 147.109 112.377 146.613 112.837C146.124 113.293 145.603 113.716 145.055 114.101C144.123 114.865 142.978 115.33 141.771 115.434C141.271 115.457 140.774 115.345 140.333 115.11C140.184 115.045 140.056 114.941 139.962 114.81C139.868 114.679 139.811 114.526 139.797 114.366C139.794 114.115 139.824 113.864 139.886 113.621C139.964 113.35 140.071 113.087 140.204 112.837C140.396 112.465 140.611 112.105 140.849 111.759C141.126 111.348 141.484 110.858 141.93 110.28C142.376 109.702 142.922 109.036 143.527 108.32L145.769 105.714C146.007 105.737 146.246 105.737 146.484 105.714H147.168C147.37 105.726 147.572 105.726 147.773 105.714C144.572 109.496 142.77 111.648 142.367 112.171C141.96 112.69 141.662 113.151 141.464 113.396C141.176 113.738 140.988 114.151 140.918 114.591ZM150.154 102.461C150.011 102.581 149.85 102.68 149.678 102.755C149.489 102.829 149.287 102.866 149.083 102.863C148.976 102.863 148.87 102.84 148.772 102.796C148.675 102.752 148.588 102.688 148.517 102.608C148.439 102.535 148.376 102.447 148.333 102.35C148.291 102.252 148.269 102.146 148.269 102.04C148.267 101.847 148.307 101.657 148.389 101.481C148.468 101.32 148.575 101.174 148.706 101.05C148.822 100.921 148.964 100.816 149.123 100.742C149.281 100.667 149.453 100.626 149.629 100.619C149.764 100.611 149.901 100.63 150.029 100.675C150.157 100.721 150.274 100.792 150.373 100.884C150.525 101.043 150.61 101.253 150.611 101.472C150.614 101.664 150.573 101.855 150.492 102.03C150.406 102.192 150.292 102.338 150.154 102.461Z" fill="#231F20"/>
<path d="M154.836 115.438C153.844 115.438 153.387 115.144 153.387 114.547C153.47 113.862 153.764 113.218 154.231 112.705L155.143 111.558L155.004 111.5C153.829 113.117 152.236 114.392 150.391 115.193C150.074 115.314 149.739 115.384 149.399 115.399C148.209 115.399 147.613 114.772 147.613 113.518C147.656 111.94 148.293 110.434 149.399 109.295C150.727 107.556 152.595 106.293 154.717 105.699C155.166 105.6 155.625 105.544 156.086 105.533C156.386 105.524 156.686 105.554 156.979 105.621C157.181 105.663 157.375 105.735 157.554 105.836C157.705 105.916 157.833 106.032 157.925 106.175C158.017 106.317 158.071 106.481 158.08 106.65C158.082 106.962 158.021 107.272 157.901 107.561L159.33 105.827C159.564 105.898 159.809 105.934 160.054 105.934C160.465 105.945 160.876 105.929 161.284 105.885L156.393 111.705C155.233 113.048 154.647 113.988 154.647 114.537C154.647 114.841 154.836 114.997 155.203 114.997C155.646 114.981 156.08 114.867 156.473 114.664C156.976 114.431 157.455 114.149 157.901 113.822C158.389 113.467 158.853 113.081 159.29 112.665C159.747 112.254 160.163 111.842 160.54 111.441C160.917 111.039 161.264 110.657 161.532 110.314L162.227 109.54L162.534 109.785L161.79 110.618C158.993 113.831 156.674 115.438 154.836 115.438ZM150.818 110.294C149.449 111.927 148.764 113.27 148.764 114.321C148.764 114.792 148.982 115.037 149.419 115.037C150.838 115.037 152.871 113.488 155.54 110.402L156.76 108.952C157.203 108.398 157.503 107.745 157.633 107.051C157.649 106.919 157.635 106.784 157.59 106.658C157.546 106.532 157.474 106.418 157.378 106.324C157.283 106.229 157.167 106.158 157.039 106.114C156.911 106.07 156.775 106.056 156.641 106.071C155.715 106.071 154.393 106.846 152.673 108.394C152.014 108.987 151.394 109.622 150.818 110.294Z" fill="#231F20"/>
<defs>
<filter id="filter0_d_12173_17912" x="149.145" y="15.2422" width="45.2027" height="23.6793" filterUnits="userSpaceOnUse" color-interpolation-filters="sRGB">
<feFlood flood-opacity="0" result="BackgroundImageFix"/>
<feColorMatrix in="SourceAlpha" type="matrix" values="0 0 0 0 0 0 0 0 0 0 0 0 0 0 0 0 0 0 127 0" result="hardAlpha"/>
<feOffset dy="1.16775"/>
<feGaussianBlur stdDeviation="0.583877"/>
<feComposite in2="hardAlpha" operator="out"/>
<feColorMatrix type="matrix" values="0 0 0 0 0 0 0 0 0 0 0 0 0 0 0 0 0 0 0.25 0"/>
<feBlend mode="normal" in2="BackgroundImageFix" result="effect1_dropShadow_12173_17912"/>
<feBlend mode="normal" in="SourceGraphic" in2="effect1_dropShadow_12173_17912" result="shape"/>
</filter>
</defs>
</svg>
